<?xml version="1.0" standalone="no"?><!DOCTYPE svg PUBLIC "-//W3C//DTD SVG 1.1//EN" "http://www.w3.org/Graphics/SVG/1.1/DTD/svg11.dtd"><svg height="1024" node-id="1" sillyvg="true" template-height="1024" template-width="1024" version="1.1" viewBox="0 0 1024 1024" width="1024" xmlns="http://www.w3.org/2000/svg" xmlns:xlink="http://www.w3.org/1999/xlink"><defs node-id="26"><radialGradient cx="511.99997" cy="511.99994" fx="511.99997" fy="511.99994" gradientUnits="userSpaceOnUse" id="radialGradient928" node-id="8" r="512" spreadMethod="pad"><stop offset="0" stop-color="#181818"></stop><stop offset="1" stop-color="#4478a0"></stop></radialGradient></defs><g node-id="33"><path d="M 1024.00 512.00 C 1024.00 647.79 970.06 778.02 874.04 874.04 C 778.02 970.06 647.79 1024.00 512.00 1024.00 C 376.21 1024.00 245.98 970.06 149.96 874.04 C 53.94 778.02 0.00 647.79 0.00 512.00 C 0.00 376.21 53.94 245.98 149.96 149.96 C 245.98 53.94 376.21 0.00 512.00 0.00 C 647.79 -0.00 778.02 53.94 874.04 149.96 C 970.06 245.98 1024.00 376.21 1024.00 512.00 Z" fill="url(#radialGradient928)" fill-rule="evenodd" group-id="1" id="path856" node-id="10" stroke="none" target-height="1024" target-width="1024" target-x="0" target-y="0"></path></g><g node-id="34"><path d="M 1.20 230.51 L 1.03 0.56 L 203.19 0.76 C 407.52 0.96 462.51 1.67 441.72 3.85 C 435.98 4.45 417.89 7.94 401.51 11.62 C 311.49 31.81 228.73 75.06 163.88 135.81 C 86.26 208.52 35.02 297.68 11.88 400.30 C 8.23 416.50 4.37 436.66 3.31 445.10 C 1.65 458.31 1.35 428.34 1.20 230.51 Z" fill="#000000" fill-opacity="0" fill-rule="evenodd" group-id="2" id="path2282" node-id="17" stroke="none" target-height="457.75" target-width="461.48" target-x="1.03" target-y="0.56"></path><path d="M 1.20 230.51 L 1.03 0.56 L 203.19 0.76 C 407.52 0.96 462.51 1.67 441.72 3.85 C 435.98 4.45 417.89 7.94 401.51 11.62 C 311.49 31.81 228.73 75.06 163.88 135.81 C 86.26 208.52 35.02 297.68 11.88 400.30 C 8.23 416.50 4.37 436.66 3.31 445.10 C 1.65 458.31 1.35 428.34 1.20 230.51 Z" fill="#000000" fill-opacity="0" fill-rule="evenodd" group-id="2" id="path2284" node-id="18" stroke="none" target-height="457.75" target-width="461.48" target-x="1.03" target-y="0.56"></path><path d="M 1.20 230.51 L 1.03 0.56 L 203.19 0.76 C 407.52 0.96 462.51 1.67 441.72 3.85 C 435.98 4.45 417.89 7.94 401.51 11.62 C 311.49 31.81 228.73 75.06 163.88 135.81 C 86.26 208.52 35.02 297.68 11.88 400.30 C 8.23 416.50 4.37 436.66 3.31 445.10 C 1.65 458.31 1.35 428.34 1.20 230.51 Z" fill="#000000" fill-opacity="0" fill-rule="evenodd" group-id="2" id="path2286" node-id="19" stroke="none" target-height="457.75" target-width="461.48" target-x="1.03" target-y="0.56"></path><path d="M 1021.09 453.52 C 1019.61 429.34 1007.84 377.65 996.03 343.46 C 957.19 231.05 880.32 136.29 776.46 72.78 C 731.86 45.50 679.95 24.85 623.97 12.10 C 606.68 8.17 587.93 4.45 582.30 3.85 C 561.74 1.65 615.79 0.95 820.29 0.76 L 1023.19 0.57 L 1023.19 235.27 C 1023.19 364.36 1022.94 469.97 1022.64 469.97 C 1022.34 469.97 1021.64 462.57 1021.09 453.52 Z" fill="#000000" fill-opacity="0" fill-rule="evenodd" group-id="2" id="path2288" node-id="20" stroke="none" target-height="469.4" target-width="461.45" target-x="561.74" target-y="0.57"></path><path d="M 580.82 1020.45 C 588.87 1019.38 608.61 1015.53 624.69 1011.89 C 798.27 972.66 937.74 848.06 996.02 680.14 C 1006.21 650.79 1017.78 602.91 1020.90 577.27 C 1022.56 563.57 1022.85 593.41 1023.00 792.05 L 1023.17 1022.73 L 794.69 1022.56 C 597.71 1022.42 568.22 1022.13 580.82 1020.45 Z" fill="#000000" fill-opacity="0" fill-rule="evenodd" group-id="2" id="path2290" node-id="21" stroke="none" target-height="459.15997" target-width="454.95" target-x="568.22" target-y="563.57"></path><path d="M 1.20 792.77 C 1.35 596.92 1.66 565.09 3.27 578.17 C 4.31 586.62 8.19 607.01 11.89 623.49 C 43.02 762.33 127.92 879.58 250.34 952.80 C 279.74 970.39 308.55 983.74 343.20 995.84 C 371.66 1005.77 417.23 1016.97 443.37 1020.45 C 455.97 1022.12 426.48 1022.41 229.50 1022.55 L 1.02 1022.72 Z" fill="#000000" fill-opacity="0" fill-rule="evenodd" group-id="2" id="path2292" node-id="22" stroke="none" target-height="457.62994" target-width="454.95" target-x="1.02" target-y="565.09"></path><path d="M 449.12 837.16 C 445.16 832.51 444.75 831.20 445.63 826.04 C 447.91 812.73 448.25 809.22 447.25 809.22 C 445.17 809.22 441.18 817.80 441.18 822.24 C 441.18 828.12 438.63 827.90 433.37 821.57 L 429.23 816.58 L 431.67 809.23 C 434.12 801.84 434.84 801.53 439.82 805.78 C 442.85 808.37 445.22 805.78 465.13 778.18 L 480.66 756.64 L 480.66 736.50 C 480.66 714.40 476.05 684.93 472.59 684.93 C 471.59 684.93 468.56 685.84 465.85 686.97 L 460.92 689.01 L 438.05 674.22 L 415.18 659.44 L 409.89 647.69 C 406.99 641.23 404.61 634.26 404.61 632.20 C 404.62 626.89 396.58 619.68 388.35 617.63 C 377.79 614.99 371.23 607.04 363.66 587.68 C 359.79 577.80 354.61 567.84 350.25 561.87 L 343.13 552.14 L 331.10 552.83 C 324.49 553.22 313.87 554.45 307.51 555.58 C 298.82 557.12 294.42 557.24 289.79 556.08 C 283.90 554.59 283.52 554.16 281.01 545.86 C 279.03 539.32 277.81 537.34 276.06 537.83 C 274.79 538.19 270.78 538.90 267.16 539.42 C 256.92 540.89 256.58 541.10 249.76 549.64 L 243.33 557.70 L 211.38 557.70 L 179.44 557.70 L 170.48 576.35 L 161.53 594.99 L 159.50 616.56 L 157.47 638.12 L 164.87 654.58 C 171.41 669.13 173.56 672.34 183.49 682.36 C 189.66 688.60 195.51 693.70 196.48 693.70 C 200.30 693.70 199.76 690.45 194.09 679.17 L 188.20 667.44 L 188.20 641.35 L 188.20 615.25 L 195.89 604.20 C 202.29 595.01 209.63 587.82 222.87 577.79 C 223.84 577.05 230.98 575.91 238.72 575.24 C 251.14 574.18 254.50 574.45 267.16 577.51 C 275.52 579.54 288.43 584.26 298.10 588.83 C 312.81 595.78 316.59 598.42 331.55 612.11 C 347.25 626.48 349.01 628.66 356.89 643.44 C 364.17 657.10 365.77 661.57 368.31 675.41 C 370.89 689.51 371.13 694.91 370.26 718.92 C 369.72 734.00 369.77 746.34 370.38 746.34 C 370.99 746.34 372.56 745.37 373.87 744.18 C 376.02 742.24 377.20 742.98 385.66 751.52 C 393.83 759.76 394.83 761.34 393.25 763.55 C 392.26 764.94 391.07 767.07 390.62 768.28 C 390.17 769.48 388.53 773.27 386.99 776.69 C 384.27 782.70 383.96 782.90 377.40 782.90 C 371.88 782.90 370.93 782.53 372.26 780.93 C 373.51 779.42 373.21 778.33 370.98 776.32 C 368.12 773.73 368.06 773.77 368.06 778.29 L 368.06 782.90 L 359.98 782.90 L 351.90 782.90 L 354.33 778.15 C 355.67 775.53 359.64 768.32 363.14 762.11 C 366.65 755.91 369.52 750.10 369.52 749.20 C 369.52 744.96 365.43 750.04 356.46 765.41 L 346.68 782.17 L 339.09 782.61 C 332.03 783.02 329.31 781.50 333.02 779.21 C 334.60 778.24 338.30 772.62 345.29 760.60 C 348.56 754.97 348.89 753.65 347.00 753.65 C 345.68 753.65 340.47 759.97 334.94 768.28 L 325.21 782.90 L 318.03 782.90 C 312.70 782.90 311.13 782.43 311.92 781.07 C 312.50 780.07 319.12 770.25 326.63 759.26 C 334.13 748.27 340.28 738.89 340.28 738.42 C 340.28 737.95 339.45 737.59 338.45 737.61 C 337.44 737.64 329.38 747.81 320.53 760.21 L 304.45 782.76 L 296.77 782.83 C 292.55 782.87 289.11 782.41 289.13 781.80 C 289.15 781.20 300.71 765.90 314.82 747.80 C 328.92 729.71 341.16 713.59 342.01 711.98 C 345.63 705.14 329.56 722.82 307.32 750.15 C 294.16 766.31 281.88 780.47 280.03 781.60 C 277.83 782.94 274.30 783.39 269.82 782.91 L 262.98 782.17 L 284.91 757.31 C 296.98 743.64 313.16 724.88 320.88 715.63 C 328.60 706.38 335.36 698.30 335.89 697.67 C 338.09 695.08 341.73 698.85 345.43 707.54 C 348.70 715.23 355.19 722.95 358.39 722.95 C 358.77 722.95 359.88 719.34 360.87 714.93 C 362.43 707.95 362.24 704.33 359.36 686.78 C 356.27 667.94 355.51 665.63 347.69 650.93 C 339.71 635.93 338.58 634.57 322.89 621.13 C 303.54 604.55 288.07 595.74 269.32 590.63 C 240.73 582.84 225.30 586.37 209.94 604.21 C 201.90 613.55 201.67 614.08 199.84 626.79 C 196.86 647.61 199.30 664.80 207.61 681.38 L 214.14 694.43 L 210.47 699.91 C 207.03 705.06 206.35 705.40 199.30 705.40 L 191.80 705.40 L 176.90 690.41 C 163.49 676.92 161.33 673.98 155.36 661.06 L 148.71 646.70 L 148.71 625.29 C 148.71 606.50 149.20 602.18 152.64 589.93 C 155.88 578.41 158.41 573.21 167.14 560.09 L 177.71 544.20 L 195.75 532.67 C 221.38 516.29 236.27 510.87 272.38 504.77 C 283.19 502.95 292.02 500.99 292.02 500.42 C 292.02 499.84 288.57 497.28 284.35 494.72 C 276.41 489.91 274.14 487.31 251.58 457.20 C 238.51 439.76 237.99 438.75 230.74 416.98 L 223.30 394.65 L 223.30 357.68 C 223.30 327.61 223.86 316.96 226.34 300.65 C 229.27 281.35 229.79 279.75 240.09 258.40 C 245.98 246.19 251.54 232.70 252.46 228.42 C 253.74 222.43 255.59 219.12 260.51 214.06 C 264.45 210.01 268.54 203.55 271.17 197.24 C 274.90 188.29 276.63 186.09 285.00 179.69 C 291.50 174.72 296.71 169.05 301.27 161.95 C 307.12 152.84 309.32 150.77 318.64 145.58 C 324.51 142.31 334.24 135.67 340.27 130.82 C 346.29 125.98 353.20 121.58 355.62 121.06 C 358.04 120.53 372.05 116.89 386.74 112.96 C 411.87 106.25 414.89 105.77 437.45 104.88 L 461.43 103.94 L 465.91 107.71 C 469.11 110.40 472.82 111.75 478.82 112.41 C 489.34 113.56 492.63 114.91 500.34 121.23 C 503.91 124.16 510.70 127.56 516.56 129.37 C 524.58 131.85 527.73 133.73 532.00 138.58 C 534.96 141.94 540.58 146.18 544.50 148.02 C 550.47 150.82 552.65 153.05 557.95 161.87 C 561.44 167.65 568.78 176.66 574.27 181.89 C 584.22 191.37 584.28 191.47 592.41 213.64 L 600.57 235.88 L 600.57 258.66 C 600.57 277.79 599.97 284.18 596.78 298.56 C 592.40 318.40 588.50 326.24 573.96 344.53 C 561.42 360.30 543.66 373.20 518.65 384.67 L 501.43 392.58 L 493.24 388.56 C 485.47 384.75 485.05 384.26 485.05 379.07 C 485.05 374.91 487.15 370.28 493.82 359.68 L 502.60 345.75 L 502.60 318.20 L 502.60 290.64 L 494.05 280.50 C 485.90 270.83 484.77 270.07 469.95 264.07 L 454.40 257.78 L 445.02 260.59 C 434.14 263.85 414.86 278.19 414.86 283.02 C 414.86 284.58 412.23 290.65 409.01 296.51 C 403.33 306.86 403.16 307.57 403.16 321.27 C 403.16 334.33 403.60 336.47 409.08 350.24 C 414.51 363.86 416.09 366.26 428.09 379.04 C 436.14 387.62 441.18 394.19 441.18 396.12 C 441.18 399.90 463.63 415.82 469.13 415.93 C 477.70 416.11 491.76 425.86 518.86 450.41 C 546.06 475.06 546.11 475.11 555.79 492.30 C 564.09 507.05 565.48 510.54 565.48 516.72 C 565.48 521.29 567.35 529.10 570.59 538.07 C 574.58 549.07 575.71 554.44 575.71 562.27 C 575.71 567.80 576.15 572.33 576.69 572.33 C 577.23 572.33 582.00 568.18 587.29 563.11 C 600.51 550.45 645.04 522.90 673.81 509.59 C 704.18 495.54 709.54 490.86 719.97 469.29 L 727.77 453.15 L 727.78 437.87 C 727.79 422.91 727.70 422.49 723.48 418.13 L 719.16 413.67 L 698.95 414.95 L 678.73 416.24 L 665.65 425.19 C 655.55 432.11 651.57 435.86 648.14 441.70 C 644.97 447.11 641.95 450.12 637.53 452.27 L 631.36 455.27 L 624.34 450.91 L 617.33 446.55 L 619.17 421.89 C 620.93 398.32 621.30 396.47 627.58 379.92 C 633.95 363.12 634.50 362.25 646.24 350.43 C 659.60 336.98 674.13 326.66 679.70 326.66 C 681.69 326.66 690.69 323.70 699.69 320.08 L 716.06 313.50 L 741.69 313.50 L 767.31 313.50 L 788.86 324.32 C 808.94 334.40 811.22 335.97 822.12 347.35 C 832.83 358.52 834.79 361.56 845.08 382.96 C 856.29 406.25 856.36 406.45 859.32 427.65 L 862.30 448.95 L 856.31 476.62 C 852.09 496.12 848.92 507.11 845.57 513.82 C 842.96 519.06 839.62 526.63 838.15 530.66 C 836.62 534.84 831.09 543.28 825.21 550.40 C 809.14 569.84 767.13 613.28 764.40 613.28 C 763.04 613.28 757.05 617.44 751.08 622.53 C 745.11 627.63 734.40 635.34 727.28 639.67 L 714.33 647.54 L 719.97 649.92 C 723.06 651.22 731.85 653.80 739.49 655.65 C 747.13 657.50 762.59 661.90 773.85 665.43 C 785.11 668.95 807.82 674.45 824.30 677.64 C 859.86 684.53 872.19 684.52 896.54 677.57 C 909.64 673.83 911.73 672.73 918.52 666.02 C 926.92 657.72 931.38 656.72 940.51 661.07 C 945.44 663.43 945.68 663.88 945.68 671.10 C 945.68 676.98 944.24 681.74 939.18 692.57 C 931.45 709.10 927.37 713.10 901.66 729.38 C 884.04 740.55 883.69 740.69 861.04 745.94 L 838.19 751.23 L 782.63 749.49 C 752.06 748.54 713.24 747.77 696.35 747.79 C 659.44 747.82 643.96 750.67 629.30 760.12 C 620.74 765.64 620.14 767.60 626.76 768.52 C 629.42 768.89 630.86 770.58 632.60 775.36 C 634.79 781.41 634.77 781.80 632.00 783.82 C 626.92 787.53 623.39 785.80 621.93 778.88 C 621.21 775.46 620.10 772.67 619.46 772.67 C 616.72 772.67 616.57 776.18 619.01 782.95 L 621.61 790.19 L 617.45 794.54 C 615.16 796.93 612.77 798.57 612.15 798.19 C 611.53 797.81 609.92 794.15 608.56 790.07 C 606.83 784.85 605.64 783.10 604.55 784.19 C 603.46 785.27 603.80 788.38 605.70 794.64 L 608.39 803.54 L 603.90 808.03 C 598.52 813.41 596.18 812.46 596.18 804.91 C 596.18 801.06 595.43 799.01 593.78 798.38 C 590.11 796.97 589.98 797.94 592.54 807.80 L 594.90 816.94 L 590.14 821.86 C 587.52 824.56 584.84 826.77 584.20 826.77 C 583.55 826.77 583.02 823.83 583.02 820.24 C 583.02 815.21 582.35 813.36 580.10 812.15 C 576.59 810.27 576.51 810.95 578.75 823.07 C 580.31 831.52 580.28 831.65 575.85 836.08 C 571.47 840.46 571.32 840.49 569.20 837.69 C 567.72 835.73 567.01 831.16 566.98 823.32 L 566.93 811.83 L 577.08 795.54 C 586.82 779.89 587.92 778.70 605.23 765.37 C 630.79 745.66 638.67 741.95 667.10 736.22 L 690.50 731.50 L 745.34 735.00 C 799.63 738.47 800.50 738.48 833.08 736.01 C 852.13 734.57 869.67 732.47 874.75 731.02 C 880.95 729.26 889.34 724.55 903.27 715.03 C 922.18 702.09 923.27 701.07 929.21 690.67 C 933.81 682.62 935.41 678.21 935.43 673.60 C 935.45 664.90 932.41 665.42 921.59 675.98 C 911.86 685.46 907.88 686.93 874.02 693.62 C 859.18 696.54 858.44 696.56 851.91 694.07 C 845.65 691.68 842.47 691.62 808.77 693.22 C 772.59 694.93 772.19 694.92 735.10 690.68 C 698.02 686.45 697.60 686.43 659.79 688.09 L 621.77 689.75 L 613.22 697.07 C 605.63 703.57 602.58 705.02 586.17 710.01 C 571.77 714.37 565.22 715.62 556.66 715.63 L 545.65 715.64 L 509.75 751.83 C 465.50 796.44 461.13 802.66 458.61 824.71 C 456.58 842.47 455.19 844.29 449.12 837.16 Z M 376.78 771.30 C 378.72 767.68 378.69 766.82 376.63 766.81 C 374.93 766.81 371.12 771.05 371.03 773.03 C 370.93 775.33 375.34 774.00 376.78 771.30 Z M 381.22 763.89 C 381.22 763.09 380.23 762.43 379.03 762.43 C 377.82 762.43 376.83 763.09 376.83 763.89 C 376.83 764.69 377.82 765.35 379.03 765.35 C 380.23 765.35 381.22 764.69 381.22 763.89 Z M 351.97 751.58 C 351.97 751.24 352.37 749.93 352.86 748.66 C 354.17 745.26 350.12 745.76 347.93 749.27 C 346.33 751.83 346.47 752.19 349.04 752.19 C 350.65 752.19 351.97 751.92 351.97 751.58 Z M 360.49 737.40 C 363.16 733.32 365.03 729.67 364.65 729.28 C 363.23 727.86 357.94 732.47 355.01 737.68 C 351.48 743.97 351.32 744.89 353.80 744.85 C 354.81 744.84 357.82 741.49 360.49 737.40 Z M 344.66 733.18 C 345.87 730.94 345.78 730.26 344.28 730.26 C 342.13 730.26 338.81 733.09 338.81 734.94 C 338.81 737.31 343.15 736.01 344.66 733.18 Z M 527.93 714.45 C 533.70 709.78 540.72 705.07 543.54 703.99 C 546.35 702.91 557.87 695.42 569.13 687.34 C 584.59 676.24 592.13 671.82 599.93 669.26 C 605.62 667.39 618.37 661.60 628.29 656.39 L 646.31 646.91 L 672.08 646.91 L 697.84 646.91 L 733.65 622.05 C 755.85 606.64 772.67 593.83 777.88 588.37 L 786.28 579.57 L 786.28 562.14 C 786.29 545.50 786.51 544.22 791.15 534.03 C 794.94 525.73 797.16 522.73 801.10 520.61 C 804.67 518.68 807.53 515.22 810.74 508.91 L 815.30 499.95 L 813.26 486.79 C 812.13 479.55 811.19 465.03 811.18 454.53 L 811.15 435.44 L 801.03 430.55 C 791.58 425.97 790.25 424.70 780.51 410.89 C 772.70 399.82 766.41 393.01 755.41 383.69 C 741.74 372.12 739.81 370.99 727.32 367.26 C 714.66 363.48 672.20 355.91 663.64 355.91 C 660.77 355.91 657.49 358.19 651.52 364.32 C 643.97 372.08 642.83 374.20 636.70 391.85 C 630.89 408.57 629.93 413.11 629.01 428.04 C 627.99 444.67 628.04 445.11 630.99 445.11 C 633.17 445.11 635.79 442.23 640.33 434.82 C 646.24 425.17 647.55 424.01 661.45 416.00 L 676.26 407.46 L 694.35 405.84 C 711.43 404.32 713.00 404.41 722.46 407.46 C 732.23 410.61 732.58 410.89 736.72 419.08 C 740.39 426.37 740.95 429.11 740.95 439.80 C 740.95 451.49 740.59 452.90 733.78 467.49 C 728.93 477.86 723.00 487.39 715.53 496.76 L 704.47 510.66 L 682.86 519.00 C 670.98 523.58 660.21 528.52 658.94 529.96 C 657.66 531.40 649.25 536.28 640.24 540.80 C 630.63 545.61 618.00 553.60 609.66 560.11 C 588.61 576.57 559.85 605.12 548.54 620.79 C 543.10 628.32 536.74 636.78 534.40 639.60 C 531.93 642.56 526.83 653.62 522.24 665.92 L 514.35 687.12 L 514.32 705.03 C 514.30 716.89 514.83 722.95 515.87 722.95 C 516.74 722.95 522.17 719.12 527.93 714.45 Z M 504.06 668.25 C 504.06 660.95 517.42 634.57 528.96 619.09 L 540.43 603.70 L 538.88 592.03 C 537.84 584.17 535.49 576.26 531.66 567.75 C 526.52 556.30 525.99 553.97 525.99 542.78 L 525.99 530.44 L 512.47 518.37 C 498.10 505.55 475.07 492.38 460.69 488.77 C 456.47 487.71 448.25 483.29 440.34 477.81 C 433.04 472.77 420.78 465.93 413.10 462.62 C 401.30 457.54 398.40 455.60 394.53 450.21 C 392.01 446.69 386.59 440.15 382.49 435.66 L 375.04 427.51 L 376.08 417.77 C 376.66 412.42 377.42 407.27 377.78 406.33 C 378.14 405.39 375.48 401.06 371.87 396.71 C 365.57 389.14 365.39 388.66 367.56 385.34 C 369.49 382.38 369.59 380.24 368.20 370.90 L 366.57 359.94 L 379.01 346.38 L 391.46 332.82 L 391.46 318.00 C 391.46 303.98 391.74 302.64 396.58 293.02 C 399.40 287.44 401.70 281.36 401.70 279.53 C 401.71 277.19 405.40 272.99 414.28 265.24 C 425.15 255.76 428.54 253.71 439.24 250.10 L 451.63 245.92 L 460.66 249.14 C 481.75 256.68 489.96 261.67 500.33 273.26 C 509.24 283.21 510.52 285.43 513.17 295.61 C 515.92 306.19 515.99 308.24 514.31 327.39 L 512.50 347.86 L 503.89 363.35 C 499.16 371.86 495.29 379.26 495.29 379.80 C 495.29 387.46 552.38 354.57 560.52 342.21 C 562.72 338.89 568.02 331.81 572.31 326.49 C 579.41 317.69 580.51 315.29 584.57 299.77 L 589.03 282.71 L 585.66 278.44 C 583.58 275.81 580.88 274.15 578.58 274.10 C 573.45 273.99 565.92 264.59 557.43 247.69 C 553.65 240.16 547.17 230.10 543.03 225.33 C 534.66 215.69 528.68 212.44 499.32 201.59 C 486.32 196.79 478.55 192.75 467.32 184.97 C 453.99 175.74 451.10 174.38 438.70 171.51 C 425.37 168.43 423.87 168.38 393.20 170.06 C 367.09 171.49 315.01 177.03 302.99 179.66 C 301.37 180.01 295.94 183.36 290.92 187.09 C 283.86 192.34 281.79 194.72 281.79 197.62 C 281.79 199.99 278.02 206.38 271.55 214.99 C 264.12 224.89 261.32 229.82 261.32 233.05 C 261.32 235.66 256.74 246.63 250.22 259.66 C 239.84 280.37 238.92 282.98 236.20 299.49 C 234.24 311.44 233.06 327.31 232.55 348.59 L 231.81 380.03 L 237.09 399.77 C 244.19 426.33 248.80 437.14 256.45 445.15 C 259.93 448.80 262.78 452.63 262.78 453.66 C 262.78 458.66 280.19 477.48 294.22 487.65 C 302.26 493.47 313.17 502.08 318.47 506.77 C 327.38 514.65 328.63 515.30 335.15 515.30 C 339.69 515.30 351.40 518.23 367.93 523.50 C 392.35 531.29 394.11 532.10 402.65 539.58 C 407.60 543.92 412.87 547.47 414.37 547.47 C 415.94 547.47 427.36 557.81 441.43 571.96 C 464.77 595.43 466.10 597.10 473.42 611.81 C 477.63 620.26 483.22 634.47 485.85 643.40 C 488.48 652.34 492.35 663.04 494.46 667.20 C 497.85 673.89 498.62 674.57 501.17 673.21 C 502.78 672.35 504.06 670.15 504.06 668.25 Z" fill="#000000" fill-opacity="0" fill-rule="evenodd" group-id="2" id="path2294" node-id="23" stroke="none" target-height="740.35" target-width="796.97" target-x="148.71" target-y="103.94"></path><path d="M 512.00 948.55 L 510.61 948.55 L 452.02 889.91 L 393.43 831.28 L 393.43 826.81 L 393.43 822.34 L 395.17 817.81 L 396.90 813.29 L 454.45 870.79 L 512.00 928.29 L 574.67 865.66 L 637.35 803.03 L 726.93 803.03 L 816.51 803.03 L 816.51 775.11 L 816.51 747.19 L 823.24 748.48 L 829.98 749.77 L 829.98 784.48 L 829.98 819.20 L 736.32 819.20 L 642.65 819.20 L 578.02 883.87 L 513.39 948.55 Z M 509.37 882.18 L 507.96 895.31 L 501.74 890.25 L 495.52 885.19 L 496.35 869.51 L 497.18 853.83 L 503.98 861.44 L 510.79 869.05 Z M 516.92 894.65 L 514.69 894.65 L 514.69 879.98 L 514.69 865.32 L 520.76 861.05 L 526.82 856.78 L 529.16 869.14 L 531.50 881.50 L 525.32 888.07 L 519.14 894.65 Z M 491.36 865.00 L 489.09 878.95 L 483.03 872.48 L 476.97 866.01 L 477.16 856.75 L 477.35 847.49 L 479.26 842.65 L 481.17 837.80 L 487.40 844.43 L 493.62 851.06 L 491.36 865.00 Z M 542.66 870.71 L 536.94 876.08 L 535.25 871.67 L 533.56 867.26 L 533.56 858.52 L 533.56 849.78 L 540.02 843.71 L 546.48 837.64 L 547.43 851.49 L 548.38 865.34 Z M 369.20 873.09 L 366.52 873.09 L 358.16 861.64 L 349.81 850.19 L 341.59 834.02 L 333.37 817.85 L 322.82 788.33 L 312.28 758.81 L 308.39 740.33 L 304.51 721.84 L 304.79 706.52 L 305.07 691.20 L 310.46 708.21 L 315.85 725.22 L 316.47 724.38 L 317.10 723.54 L 314.77 695.24 L 312.43 666.95 L 315.28 619.79 L 318.14 572.63 L 323.44 530.86 L 328.74 489.09 L 334.19 455.74 L 339.64 422.39 L 341.30 419.70 L 342.96 417.02 L 356.44 418.62 L 369.91 420.21 L 371.18 421.48 L 372.46 422.76 L 368.12 448.18 L 363.79 473.59 L 363.79 519.07 L 363.79 564.55 L 367.75 607.55 L 371.70 650.55 L 368.75 652.38 L 365.81 654.20 L 368.25 661.52 L 370.69 668.85 L 400.89 630.85 L 431.10 592.84 L 433.42 592.84 L 435.74 592.84 L 442.34 598.96 L 448.93 605.07 L 462.94 614.06 L 476.95 623.05 L 476.95 628.89 L 476.95 634.74 L 454.95 662.97 L 432.95 691.20 L 422.72 706.19 L 412.48 721.19 L 402.99 741.23 L 393.50 761.26 L 388.06 782.58 L 382.63 803.89 L 382.63 820.98 L 382.63 838.06 L 379.97 838.06 L 377.32 838.06 L 369.98 826.97 L 362.63 815.87 L 361.76 818.49 L 360.89 821.11 L 366.37 845.73 L 371.85 870.34 L 371.85 871.72 L 371.85 873.09 Z M 471.01 858.40 L 469.75 859.65 L 465.27 854.71 L 460.80 849.77 L 460.84 839.20 L 460.88 828.63 L 463.04 825.23 L 465.19 821.84 L 470.87 827.93 L 476.54 834.02 L 474.40 845.58 L 472.26 857.14 L 471.00 858.40 Z M 559.73 853.54 L 553.11 860.15 L 551.20 847.37 L 549.28 834.59 L 555.89 827.98 L 562.51 821.36 L 564.42 834.14 L 566.34 846.93 Z M 455.41 842.11 L 453.44 843.33 L 448.71 838.11 L 443.99 832.89 L 445.82 820.65 L 447.66 808.42 L 449.77 808.42 L 451.88 808.42 L 456.17 813.16 L 460.46 817.90 L 458.92 829.40 L 457.38 840.89 Z M 570.44 840.76 L 569.22 840.76 L 567.59 834.69 L 565.97 828.63 L 565.93 822.99 L 565.89 817.34 L 570.94 812.77 L 575.99 808.21 L 577.64 814.38 L 579.29 820.55 L 579.33 826.80 L 579.37 833.06 L 575.52 836.91 L 571.67 840.76 Z M 439.49 827.28 L 437.38 827.28 L 433.06 822.50 L 428.73 817.72 L 431.62 806.33 L 434.51 794.95 L 436.55 794.95 L 438.58 794.95 L 441.92 798.97 L 445.25 802.98 L 443.43 815.13 L 441.61 827.28 Z M 584.65 827.28 L 582.68 827.28 L 580.83 814.99 L 578.99 802.70 L 582.20 798.82 L 585.42 794.95 L 587.36 794.95 L 589.29 794.95 L 592.60 805.98 L 595.91 817.02 L 591.26 822.15 L 586.62 827.28 Z M 257.57 819.20 L 194.02 819.20 L 193.99 725.56 L 193.97 631.92 L 129.31 567.26 L 64.65 502.60 L 64.65 499.86 L 64.65 497.13 L 118.02 443.81 L 171.39 390.48 L 175.14 397.48 L 178.88 404.48 L 131.20 452.16 L 83.52 499.84 L 145.63 562.00 L 207.74 624.15 L 207.54 713.59 L 207.34 803.03 L 260.99 803.03 L 314.63 803.03 L 316.29 807.75 L 317.96 812.46 L 319.53 815.83 L 321.10 819.20 L 257.55 819.20 Z M 425.89 812.39 L 423.79 813.68 L 419.52 808.97 L 415.25 804.25 L 418.14 792.86 L 421.03 781.47 L 423.07 781.47 L 425.11 781.47 L 428.39 785.42 L 431.66 789.37 L 429.83 800.23 L 427.99 811.09 Z M 604.17 809.07 L 598.89 814.35 L 597.31 811.80 L 595.73 809.25 L 593.98 798.32 L 592.24 787.38 L 597.54 784.54 L 602.84 781.70 L 606.14 792.75 L 609.45 803.79 Z M 617.20 796.20 L 611.84 801.05 L 608.96 793.47 L 606.08 785.89 L 605.52 780.70 L 604.97 775.50 L 610.32 772.42 L 615.67 769.35 L 619.23 764.63 L 622.79 759.92 L 624.92 759.92 L 627.06 759.92 L 631.93 770.72 L 636.80 781.53 L 637.91 780.41 L 639.03 779.30 L 633.45 768.37 L 627.87 757.44 L 627.87 754.95 L 627.87 752.47 L 637.48 745.14 L 647.09 737.81 L 651.11 742.80 L 655.12 747.79 L 652.01 741.41 L 648.91 735.03 L 653.31 730.63 L 657.71 726.23 L 659.63 729.06 L 661.56 731.89 L 677.05 756.65 L 692.55 781.42 L 692.55 782.79 L 692.55 784.17 L 685.02 784.17 L 677.50 784.17 L 667.25 766.65 L 657.01 749.14 L 655.78 749.14 L 654.56 749.14 L 664.25 766.46 L 673.94 783.79 L 654.78 783.85 L 635.62 783.91 L 630.06 785.68 L 624.51 787.44 L 621.97 783.78 L 619.44 780.13 L 621.00 785.74 L 622.56 791.35 L 617.20 796.20 Z M 618.89 777.88 L 620.69 776.08 L 618.89 774.29 L 617.09 772.49 L 617.09 776.08 L 617.09 779.68 Z M 653.47 778.78 L 654.82 778.78 L 654.82 777.43 L 654.82 776.08 L 653.47 776.08 L 652.13 776.08 L 652.13 777.43 L 652.13 778.78 Z M 650.78 773.39 L 652.13 773.39 L 652.13 772.04 L 652.13 770.69 L 650.78 770.69 L 649.43 770.69 L 649.43 772.04 L 649.43 773.39 Z M 648.08 768.00 L 649.43 768.00 L 649.43 766.65 L 649.43 765.31 L 648.08 765.31 L 646.74 765.31 L 646.74 766.65 L 646.74 768.00 Z M 645.39 762.61 L 646.74 762.61 L 646.74 761.26 L 646.74 759.92 L 645.39 759.92 L 644.04 759.92 L 644.04 761.26 L 644.04 762.61 Z M 642.69 757.22 L 644.04 757.22 L 644.04 755.87 L 644.04 754.53 L 642.69 754.53 L 641.35 754.53 L 641.35 755.87 L 641.35 757.22 Z M 640.00 751.83 L 641.35 751.83 L 641.35 750.48 L 641.35 749.14 L 640.00 749.14 L 638.65 749.14 L 638.65 750.48 L 638.65 751.83 Z M 411.03 797.64 L 407.98 797.64 L 404.75 794.41 L 401.52 791.17 L 401.52 784.98 L 401.52 778.78 L 404.39 778.78 L 407.27 778.78 L 405.63 773.62 L 403.99 768.45 L 406.40 766.96 L 408.82 765.47 L 414.52 771.55 L 420.23 777.62 L 417.16 787.63 L 414.09 797.64 Z M 408.25 770.69 L 409.60 770.69 L 409.60 769.35 L 409.60 768.00 L 408.25 768.00 L 406.91 768.00 L 406.91 769.35 L 406.91 770.69 Z M 270.42 784.17 L 261.00 784.17 L 265.91 777.99 L 270.82 771.80 L 282.92 757.81 L 295.03 743.81 L 296.88 748.50 L 298.74 753.18 L 298.93 757.41 L 299.11 761.64 L 289.47 772.90 L 279.83 784.17 L 270.41 784.17 Z M 296.42 784.17 L 288.34 784.17 L 288.34 782.56 L 288.34 780.96 L 294.09 772.88 L 299.84 764.81 L 302.13 768.42 L 304.42 772.04 L 304.46 778.11 L 304.50 784.17 L 296.42 784.17 Z M 710.51 783.27 L 706.91 783.27 L 701.22 781.17 L 695.53 779.06 L 677.68 752.16 L 659.82 725.25 L 662.73 719.82 L 665.64 714.38 L 671.34 710.39 L 677.04 706.40 L 683.05 713.62 L 689.06 720.84 L 712.49 751.83 L 735.92 782.82 L 727.10 783.71 L 718.29 784.60 L 717.30 781.63 L 716.31 778.67 L 697.48 753.12 L 678.65 727.58 L 677.29 727.58 L 675.92 727.58 L 686.14 741.73 L 696.36 755.87 L 705.23 767.71 L 714.11 779.55 L 714.11 781.41 L 714.11 783.27 Z M 672.34 722.19 L 673.68 722.19 L 673.68 720.84 L 673.68 719.49 L 672.34 719.49 L 670.99 719.49 L 670.99 720.84 L 670.99 722.19 Z M 753.82 784.17 L 744.64 784.17 L 713.07 746.13 L 681.50 708.09 L 682.50 707.08 L 683.51 706.08 L 694.09 710.37 L 704.67 714.66 L 727.58 741.58 L 750.48 768.51 L 756.74 776.34 L 763.00 784.17 Z M 781.01 784.17 L 772.01 784.17 L 741.50 751.60 L 710.99 719.02 L 712.12 717.88 L 713.26 716.74 L 723.79 720.47 L 734.32 724.20 L 761.26 751.63 L 788.21 779.07 L 789.11 781.62 L 790.01 784.17 Z M 245.42 781.51 L 236.20 781.47 L 242.65 774.06 L 249.11 766.65 L 269.33 745.77 L 289.56 724.88 L 291.64 724.88 L 293.73 724.88 L 293.64 732.29 L 293.56 739.71 L 274.11 760.62 L 254.65 781.54 L 245.43 781.51 Z M 233.77 773.12 L 229.05 776.74 L 229.05 768.19 L 229.05 759.63 L 258.22 730.81 L 287.39 701.98 L 277.82 710.06 L 268.24 718.15 L 266.83 719.57 L 265.43 720.98 L 249.05 735.06 L 232.68 749.14 L 230.86 749.14 L 229.05 749.14 L 229.05 740.02 L 229.05 730.89 L 235.12 726.92 L 241.18 722.94 L 262.74 704.37 L 284.29 685.81 L 292.38 679.55 L 300.46 673.28 L 296.42 675.31 L 292.38 677.33 L 276.21 689.58 L 260.04 701.83 L 245.79 713.36 L 231.54 724.88 L 230.29 724.88 L 229.05 724.88 L 229.15 716.13 L 229.25 707.37 L 251.38 691.90 L 273.52 676.42 L 281.60 669.37 L 289.69 662.31 L 280.25 668.91 L 270.82 675.52 L 257.35 685.01 L 243.87 694.50 L 236.46 699.22 L 229.05 703.95 L 229.13 694.88 L 229.21 685.81 L 259.24 666.16 L 289.27 646.51 L 293.29 650.53 L 297.31 654.55 L 293.50 659.40 L 289.69 664.25 L 294.37 660.58 L 299.05 656.91 L 300.56 660.84 L 302.07 664.77 L 300.78 671.87 L 299.49 678.97 L 295.26 685.01 L 291.03 691.05 L 291.03 704.75 L 291.03 718.45 L 264.76 743.97 L 238.49 769.49 L 233.77 773.12 Z M 794.47 767.79 L 793.60 776.41 L 768.56 753.01 L 743.51 729.61 L 744.52 728.60 L 745.53 727.60 L 758.81 731.54 L 772.09 735.49 L 783.72 747.33 L 795.34 759.18 Z M 794.60 746.00 L 793.60 748.87 L 786.86 743.67 L 780.13 738.48 L 784.17 738.46 L 788.21 738.44 L 791.91 740.78 L 795.60 743.12 L 794.60 746.00 Z M 837.39 738.08 L 828.63 737.80 L 805.73 731.22 L 782.82 724.64 L 755.87 716.36 L 728.93 708.07 L 704.67 700.28 L 680.42 692.49 L 653.47 681.90 L 626.53 671.32 L 594.19 658.72 L 561.85 646.13 L 536.25 635.41 L 510.65 624.69 L 472.93 606.22 L 435.20 587.75 L 405.58 570.68 L 375.96 553.62 L 375.04 548.82 L 374.11 544.02 L 375.47 540.49 L 376.82 536.95 L 414.10 551.52 L 451.37 566.08 L 468.88 573.89 L 486.40 581.70 L 502.57 587.05 L 518.74 592.39 L 539.28 596.61 L 559.81 600.83 L 564.64 602.68 L 569.47 604.54 L 567.52 601.38 L 565.58 598.23 L 567.94 598.23 L 570.30 598.23 L 590.33 603.56 L 610.36 608.88 L 613.05 608.91 L 615.75 608.93 L 611.70 606.32 L 607.66 603.70 L 614.84 603.66 L 622.01 603.62 L 643.07 607.65 L 664.14 611.68 L 677.01 615.96 L 689.88 620.23 L 692.31 619.34 L 694.75 618.44 L 680.00 583.41 L 665.25 548.38 L 661.61 538.58 L 657.97 528.78 L 653.44 520.02 L 648.91 511.27 L 656.58 504.99 L 664.25 498.72 L 666.73 498.62 L 669.22 498.53 L 674.43 493.81 L 679.65 489.09 L 693.29 503.92 L 706.92 518.74 L 726.35 542.99 L 745.78 567.24 L 763.10 592.84 L 780.43 618.44 L 803.47 658.86 L 826.50 699.28 L 836.32 717.06 L 846.15 734.83 L 846.15 736.60 L 846.15 738.36 L 837.39 738.08 Z M 239.16 676.16 L 229.05 682.21 L 229.05 674.02 L 229.05 665.84 L 247.92 654.82 L 266.78 643.80 L 266.78 642.33 L 266.78 640.85 L 249.17 650.53 L 231.56 660.21 L 230.31 660.21 L 229.05 660.21 L 229.05 644.50 L 229.05 628.79 L 242.82 622.34 L 256.59 615.89 L 261.44 621.88 L 266.29 627.87 L 268.73 627.87 L 271.16 627.87 L 278.40 635.43 L 285.64 642.99 L 285.64 644.66 L 285.64 646.32 L 267.45 658.21 L 249.26 670.10 Z M 234.28 644.04 L 236.82 644.04 L 238.46 641.38 L 240.11 638.71 L 235.93 640.32 L 231.75 641.92 L 231.75 642.98 L 231.75 644.04 Z M 270.50 641.35 L 271.85 641.35 L 273.52 638.65 L 275.18 635.96 L 273.83 635.96 L 272.49 635.96 L 270.82 638.65 L 269.15 641.35 Z M 243.87 638.65 L 245.22 638.65 L 245.22 637.31 L 245.22 635.96 L 243.87 635.96 L 242.53 635.96 L 242.53 637.31 L 242.53 638.65 Z M 249.26 635.96 L 250.61 635.96 L 250.61 634.61 L 250.61 633.26 L 249.26 633.26 L 247.92 633.26 L 247.92 634.61 L 247.92 635.96 Z M 829.40 656.05 L 828.63 680.42 L 822.57 669.08 L 816.50 657.73 L 816.50 640.76 L 816.50 623.79 L 878.48 561.85 L 940.46 499.92 L 879.71 439.12 L 818.95 378.32 L 824.59 373.22 L 830.22 368.12 L 894.78 432.63 L 959.33 497.14 L 959.33 499.87 L 959.33 502.61 L 894.75 567.15 L 830.17 631.69 Z M 238.46 621.32 L 229.05 625.25 L 228.63 620.50 L 228.20 615.75 L 228.32 612.41 L 228.45 609.07 L 225.88 610.65 L 223.32 612.23 L 218.10 607.51 L 212.89 602.79 L 212.89 600.84 L 212.89 598.89 L 223.91 596.09 L 234.93 593.29 L 245.64 602.97 L 256.35 612.64 L 252.11 615.02 L 247.87 617.39 Z M 796.95 615.99 L 795.71 617.22 L 792.31 613.12 L 788.90 609.01 L 791.76 609.01 L 794.63 609.01 L 796.40 611.88 L 798.18 614.76 Z M 800.47 608.84 L 796.29 608.67 L 790.23 606.23 L 784.17 603.79 L 784.17 600.20 L 784.17 596.61 L 787.19 593.59 L 790.21 590.57 L 793.25 591.26 L 796.29 591.96 L 794.28 590.83 L 792.27 589.70 L 803.94 578.03 L 815.62 566.36 L 828.41 569.09 L 841.20 571.81 L 835.38 578.01 L 829.56 584.21 L 820.08 581.59 L 810.61 578.98 L 809.32 580.26 L 808.03 581.55 L 816.31 583.37 L 824.59 585.19 L 824.59 586.78 L 824.59 588.38 L 820.28 593.14 L 815.97 597.90 L 809.13 595.29 L 802.28 592.69 L 801.11 593.87 L 799.93 595.04 L 805.52 596.82 L 811.12 598.59 L 811.12 600.57 L 811.12 602.54 L 807.88 605.78 L 804.65 609.01 L 800.47 608.84 Z M 212.71 596.79 L 208.50 598.42 L 203.60 593.01 L 198.70 587.59 L 206.46 584.75 L 214.23 581.90 L 217.99 580.57 L 221.75 579.24 L 226.75 583.76 L 231.75 588.29 L 231.75 590.23 L 231.75 592.17 L 224.34 593.66 L 216.93 595.16 Z M 525.92 587.45 L 521.16 587.45 L 517.93 584.22 L 514.69 580.99 L 514.75 578.16 L 514.81 575.33 L 534.29 553.29 L 553.77 531.25 L 575.32 511.34 L 596.88 491.43 L 622.48 470.35 L 648.08 449.27 L 663.58 430.41 L 679.07 411.54 L 679.07 408.32 L 679.07 405.10 L 658.03 406.32 L 636.99 407.54 L 629.18 400.81 L 621.36 394.09 L 635.22 392.19 L 649.09 390.28 L 647.77 386.86 L 646.46 383.44 L 676.91 378.89 L 707.37 374.33 L 722.75 371.43 L 738.14 368.52 L 737.57 365.79 L 737.01 363.05 L 784.17 349.97 L 831.32 336.88 L 839.41 335.33 L 847.49 333.77 L 840.42 340.02 L 833.34 346.27 L 797.02 378.61 L 760.70 410.95 L 747.51 421.88 L 734.31 432.81 L 706.28 452.87 L 678.24 472.93 L 649.69 493.24 L 621.14 513.55 L 595.54 532.72 L 569.94 551.88 L 550.31 569.66 L 530.68 587.45 L 525.92 587.45 Z M 204.64 580.69 L 192.36 582.52 L 188.77 578.18 L 185.17 573.85 L 186.69 572.33 L 188.20 570.81 L 198.52 568.47 L 208.84 566.12 L 214.08 571.32 L 219.32 576.52 L 218.12 577.69 L 216.93 578.86 Z M 189.85 567.08 L 178.95 568.88 L 173.99 563.40 L 169.03 557.92 L 172.77 556.73 L 176.50 555.54 L 186.16 553.94 L 195.81 552.35 L 200.48 557.51 L 205.15 562.66 L 202.95 563.97 L 200.76 565.27 Z M 839.67 568.38 L 834.02 568.16 L 829.98 566.82 L 825.94 565.47 L 821.89 564.13 L 817.85 562.80 L 824.28 557.56 L 830.71 552.31 L 840.45 554.07 L 850.19 555.82 L 852.39 557.08 L 854.58 558.35 L 849.95 563.47 L 845.31 568.59 L 839.67 568.38 Z M 175.57 552.42 L 162.52 552.42 L 157.76 547.16 L 152.99 541.90 L 159.36 540.59 L 165.73 539.29 L 172.98 537.76 L 180.23 536.23 L 184.43 542.23 L 188.63 548.23 L 188.63 550.33 L 188.63 552.42 Z M 853.14 552.11 L 844.80 551.80 L 840.08 550.56 L 835.37 549.33 L 835.37 546.93 L 835.37 544.53 L 841.43 541.24 L 847.49 537.96 L 858.27 538.70 L 869.05 539.44 L 870.16 540.52 L 871.26 541.61 L 866.37 547.02 L 861.48 552.42 Z M 445.98 544.07 L 429.81 543.89 L 413.78 540.01 L 397.74 536.13 L 386.28 529.41 L 374.82 522.70 L 370.65 516.75 L 366.48 510.80 L 366.48 500.51 L 366.48 490.23 L 371.61 480.23 L 376.74 470.23 L 383.07 464.32 L 389.40 458.42 L 404.22 451.65 L 419.03 444.88 L 430.79 443.02 L 442.55 441.15 L 439.11 447.61 L 435.68 454.06 L 428.79 464.51 L 421.90 474.96 L 421.81 490.60 L 421.73 506.24 L 429.81 514.76 L 437.89 523.27 L 448.00 528.47 L 458.10 533.67 L 458.10 536.31 L 458.10 538.95 L 464.17 538.99 L 470.23 539.03 L 466.19 541.64 L 462.15 544.25 Z M 509.98 541.43 L 497.18 541.22 L 489.09 538.35 L 481.01 535.48 L 467.11 526.34 L 453.20 517.19 L 449.26 511.17 L 445.31 505.15 L 443.37 493.63 L 441.42 482.12 L 448.61 467.42 L 455.81 452.72 L 458.00 452.72 L 460.19 452.72 L 461.97 464.62 L 463.76 476.53 L 467.53 479.66 L 471.30 482.79 L 475.79 467.37 L 480.27 451.95 L 478.88 442.23 L 477.50 432.51 L 475.60 427.79 L 473.70 423.07 L 476.58 423.07 L 479.46 423.07 L 493.67 434.66 L 507.89 446.25 L 516.98 458.17 L 526.07 470.09 L 524.45 483.90 L 522.83 497.71 L 519.06 508.38 L 515.30 519.04 L 519.00 529.67 L 522.70 540.29 L 522.74 540.97 L 522.78 541.64 L 509.98 541.43 Z M 154.42 535.93 L 148.51 536.25 L 141.06 529.85 L 133.61 523.44 L 147.85 521.48 L 162.09 519.52 L 168.86 525.87 L 175.63 532.21 L 167.98 533.91 L 160.34 535.61 Z M 871.95 535.93 L 866.36 535.61 L 858.71 533.91 L 851.07 532.21 L 857.55 526.13 L 864.04 520.05 L 876.76 521.80 L 889.48 523.54 L 883.51 529.90 L 877.54 536.25 Z M 535.58 521.52 L 528.17 523.36 L 528.17 521.13 L 528.17 518.91 L 541.94 504.96 L 555.71 491.02 L 557.07 479.00 L 558.42 466.98 L 550.73 459.84 L 543.03 452.70 L 533.58 449.81 L 524.13 446.92 L 520.16 445.63 L 516.19 444.34 L 520.16 441.83 L 524.13 439.32 L 532.21 439.25 L 540.29 439.17 L 546.33 437.55 L 552.36 435.93 L 551.00 433.74 L 549.65 431.55 L 555.23 429.77 L 560.82 428.00 L 574.29 431.23 L 587.77 434.47 L 595.69 441.14 L 603.62 447.81 L 603.62 457.08 L 603.62 466.36 L 599.81 475.49 L 595.99 484.62 L 577.57 498.21 L 559.16 511.80 L 551.07 515.74 L 542.99 519.67 L 535.58 521.52 Z M 141.94 517.39 L 127.59 517.39 L 121.52 510.93 L 115.45 504.46 L 129.62 503.51 L 143.79 502.55 L 150.04 507.47 L 156.29 512.39 L 156.29 514.89 L 156.29 517.39 Z M 881.83 517.39 L 867.26 517.39 L 868.31 514.02 L 869.37 510.65 L 877.53 506.50 L 885.68 502.34 L 897.09 503.43 L 908.50 504.52 L 902.45 510.95 L 896.41 517.39 Z M 315.60 506.61 L 313.64 506.61 L 291.53 491.48 L 269.42 476.36 L 243.18 452.60 L 216.93 428.84 L 207.40 417.20 L 197.88 405.56 L 185.54 388.04 L 173.20 370.53 L 166.13 356.55 L 159.07 342.57 L 152.41 324.89 L 145.76 307.20 L 149.34 307.20 L 152.92 307.20 L 172.80 319.05 L 192.67 330.89 L 223.66 340.41 L 254.65 349.92 L 282.95 358.06 L 311.24 366.20 L 331.45 370.26 L 351.66 374.31 L 375.92 377.02 L 400.17 379.72 L 430.07 383.76 L 459.97 387.80 L 496.09 389.64 L 532.21 391.47 L 539.22 395.01 L 546.23 398.55 L 550.67 405.33 L 555.12 412.11 L 555.12 413.55 L 555.12 414.99 L 497.85 414.96 L 440.59 414.93 L 398.60 411.04 L 356.60 407.16 L 329.88 401.60 L 303.16 396.04 L 288.73 392.21 L 274.31 388.38 L 275.82 389.89 L 277.33 391.40 L 296.98 398.11 L 316.63 404.82 L 319.33 407.44 L 322.02 410.06 L 305.85 408.37 L 289.68 406.68 L 280.29 405.20 L 270.90 403.73 L 276.25 409.76 L 281.60 415.80 L 269.47 414.08 L 257.35 412.37 L 250.61 410.74 L 243.87 409.11 L 257.35 421.60 L 270.82 434.10 L 290.20 449.47 L 309.58 464.84 L 315.55 469.05 L 321.52 473.26 L 321.27 482.03 L 321.03 490.80 L 319.29 498.70 L 317.55 506.61 L 315.60 506.61 Z M 129.61 498.53 L 114.65 498.53 L 121.32 492.00 L 128.00 485.47 L 134.74 484.96 L 141.47 484.46 L 149.35 484.75 L 157.23 485.05 L 150.91 491.79 L 144.58 498.53 Z M 895.43 498.53 L 881.91 498.53 L 874.66 492.83 L 867.42 487.13 L 869.06 485.50 L 870.70 483.86 L 882.00 483.16 L 893.31 482.45 L 896.00 484.43 L 898.69 486.40 L 903.83 492.46 L 908.96 498.53 Z M 540.74 481.46 L 538.95 483.26 L 538.95 479.66 L 538.95 476.07 L 540.74 477.87 L 542.54 479.66 Z M 149.09 479.13 L 134.98 478.36 L 141.45 471.60 L 147.92 464.84 L 161.75 465.79 L 175.58 466.74 L 169.40 473.32 L 163.21 479.91 Z M 872.72 479.62 L 862.91 479.66 L 856.55 474.51 L 850.19 469.35 L 851.54 468.01 L 852.88 466.67 L 865.56 465.89 L 878.23 465.12 L 883.81 470.17 L 889.39 475.22 L 885.96 477.40 L 882.53 479.58 L 872.72 479.62 Z M 174.95 463.06 L 171.12 462.63 L 162.36 461.55 L 153.60 460.46 L 153.60 458.35 L 153.60 456.25 L 158.75 451.59 L 163.90 446.92 L 176.27 448.78 L 188.63 450.63 L 188.63 452.60 L 188.63 454.58 L 183.70 459.03 L 178.78 463.49 Z M 858.01 461.71 L 846.96 463.22 L 841.16 459.16 L 835.37 455.10 L 835.37 452.87 L 835.37 450.63 L 848.07 448.73 L 860.78 446.82 L 865.66 452.85 L 870.53 458.87 L 869.79 459.54 L 869.05 460.21 Z M 190.24 446.92 L 184.59 446.52 L 177.18 445.40 L 169.77 444.27 L 169.77 442.73 L 169.77 441.18 L 174.48 437.60 L 179.20 434.02 L 187.74 433.94 L 196.28 433.85 L 200.65 435.53 L 205.03 437.21 L 200.46 442.27 L 195.88 447.33 Z M 831.07 447.30 L 828.12 447.33 L 823.46 442.18 L 818.81 437.04 L 823.72 435.65 L 828.63 434.25 L 837.00 432.58 L 845.36 430.90 L 849.64 437.44 L 853.93 443.98 L 843.97 445.62 L 834.02 447.27 L 831.07 447.30 Z M 622.60 439.18 L 618.23 441.52 L 599.47 427.53 L 580.72 413.54 L 568.04 405.51 L 555.37 397.47 L 533.28 381.31 L 511.20 365.14 L 498.00 356.32 L 484.80 347.51 L 487.72 352.95 L 490.63 358.40 L 487.95 358.40 L 485.26 358.40 L 463.60 343.65 L 441.94 328.90 L 441.94 329.52 L 441.94 330.14 L 444.44 338.88 L 446.95 347.62 L 444.66 347.62 L 442.37 347.62 L 427.63 334.15 L 412.89 320.67 L 410.21 320.67 L 407.53 320.67 L 403.59 326.74 L 399.65 332.80 L 393.56 351.18 L 387.48 369.56 L 376.31 367.88 L 365.14 366.20 L 357.73 364.78 L 350.32 363.36 L 350.38 361.55 L 350.45 359.75 L 357.21 336.84 L 363.98 313.94 L 368.16 299.12 L 372.34 284.29 L 379.90 256.00 L 387.45 227.71 L 391.81 211.54 L 396.17 195.37 L 398.84 194.47 L 401.51 193.57 L 401.51 183.02 L 401.51 172.46 L 404.18 172.46 L 406.85 172.46 L 420.71 200.08 L 434.57 227.71 L 444.71 242.53 L 454.85 257.35 L 467.93 270.98 L 481.01 284.60 L 489.09 290.46 L 497.18 296.32 L 493.49 298.75 L 489.81 301.17 L 505.62 312.82 L 521.43 324.47 L 544.99 344.32 L 568.56 364.16 L 601.38 396.14 L 634.21 428.12 L 630.59 432.48 L 626.97 436.84 Z M 825.65 432.10 L 814.59 433.79 L 809.74 428.43 L 804.89 423.07 L 807.33 423.03 L 809.77 422.99 L 803.24 419.67 L 796.72 416.34 L 795.61 412.97 L 794.50 409.59 L 800.78 407.07 L 807.07 404.55 L 803.53 404.38 L 799.98 404.21 L 794.93 406.91 L 789.88 409.61 L 788.34 407.12 L 786.80 404.62 L 795.01 398.78 L 803.22 392.93 L 807.45 394.55 L 811.67 396.17 L 810.13 400.19 L 808.59 404.21 L 813.57 404.21 L 818.54 404.21 L 821.95 408.32 L 825.36 412.43 L 824.20 413.58 L 823.04 414.74 L 816.41 417.63 L 809.77 420.52 L 819.64 419.31 L 829.52 418.10 L 834.22 423.30 L 838.93 428.50 L 837.82 429.45 L 836.72 430.41 L 825.65 432.10 Z M 195.95 431.16 L 188.95 431.16 L 187.47 428.77 L 186.00 426.38 L 189.60 423.39 L 193.20 420.40 L 198.07 425.78 L 202.94 431.16 Z M 736.34 349.66 L 730.27 350.94 L 729.95 348.61 L 729.64 346.27 L 730.02 344.05 L 730.41 341.83 L 728.07 343.27 L 725.74 344.72 L 716.92 335.62 L 708.11 326.53 L 710.18 323.18 L 712.24 319.84 L 709.17 321.74 L 706.09 323.65 L 692.47 310.91 L 678.86 298.18 L 680.18 294.74 L 681.49 291.31 L 678.16 292.59 L 674.83 293.87 L 667.17 285.87 L 659.51 277.88 L 661.27 273.30 L 663.03 268.71 L 659.52 271.62 L 656.02 274.53 L 647.29 265.61 L 638.56 256.68 L 640.21 251.62 L 641.86 246.57 L 639.01 250.61 L 636.16 254.64 L 626.37 244.26 L 616.58 233.88 L 620.38 224.06 L 624.18 214.23 L 629.40 215.16 L 634.61 216.09 L 635.77 217.22 L 636.92 218.34 L 632.40 227.83 L 627.87 237.32 L 628.00 239.25 L 628.13 241.18 L 634.79 228.38 L 641.45 215.58 L 648.07 215.58 L 654.69 215.58 L 652.12 222.33 L 649.55 229.09 L 645.38 237.16 L 641.21 245.22 L 642.58 245.22 L 643.95 245.22 L 650.78 231.75 L 657.61 218.27 L 665.58 218.27 L 673.55 218.27 L 665.60 231.76 L 657.65 245.24 L 653.47 253.32 L 649.30 261.39 L 650.46 261.39 L 651.62 261.39 L 659.28 248.59 L 666.95 235.79 L 668.30 233.09 L 669.64 230.40 L 674.67 222.99 L 679.70 215.58 L 686.41 215.58 L 693.13 215.58 L 691.68 219.35 L 690.23 223.12 L 676.38 245.23 L 662.52 267.34 L 665.12 265.73 L 667.72 264.12 L 683.25 239.85 L 698.78 215.58 L 706.45 215.58 L 714.11 215.58 L 714.11 217.13 L 714.11 218.67 L 698.88 240.70 L 683.64 262.74 L 677.72 270.82 L 671.79 278.91 L 669.65 282.95 L 667.51 286.99 L 670.21 284.29 L 672.90 281.60 L 697.63 248.59 L 722.36 215.58 L 730.36 215.58 L 738.36 215.58 L 738.36 217.08 L 738.36 218.59 L 714.92 247.40 L 691.48 276.21 L 695.82 272.71 L 700.15 269.21 L 722.57 242.40 L 744.98 215.58 L 753.98 215.58 L 762.98 215.58 L 757.63 222.99 L 752.27 230.40 L 721.02 266.11 L 689.77 301.81 L 690.68 301.81 L 691.59 301.81 L 731.62 258.69 L 771.65 215.58 L 780.61 215.58 L 789.56 215.58 L 789.56 217.23 L 789.56 218.88 L 755.20 255.59 L 720.84 292.30 L 757.22 258.08 L 793.60 223.87 L 794.43 233.02 L 795.25 242.18 L 772.91 263.24 L 750.56 284.29 L 735.70 298.74 L 720.84 313.18 L 747.14 290.19 L 773.43 267.20 L 784.19 258.68 L 794.95 250.16 L 794.95 259.22 L 794.95 268.27 L 779.45 281.76 L 763.96 295.25 L 743.18 312.09 L 722.40 328.93 L 720.78 331.56 L 719.16 334.18 L 756.38 305.49 L 793.60 276.79 L 794.52 284.57 L 795.43 292.35 L 786.57 299.10 L 777.71 305.85 L 770.83 312.20 L 763.96 318.55 L 778.11 308.83 L 792.27 299.12 L 793.61 299.12 L 794.95 299.12 L 794.95 306.66 L 794.95 314.21 L 791.58 317.84 L 788.21 321.46 L 791.77 319.44 L 795.33 317.42 L 794.47 326.41 L 793.60 335.40 L 786.87 337.22 L 780.13 339.05 L 761.27 343.71 L 742.40 348.37 Z M 758.25 342.23 L 759.60 342.23 L 761.26 339.54 L 762.93 336.84 L 761.58 336.84 L 760.23 336.84 L 758.57 339.54 L 756.90 342.23 Z M 736.69 339.54 L 738.04 339.54 L 739.71 336.84 L 741.37 334.15 L 740.02 334.15 L 738.68 334.15 L 737.01 336.84 L 735.34 339.54 Z M 766.33 336.84 L 767.68 336.84 L 769.35 334.15 L 771.01 331.45 L 769.67 331.45 L 768.32 331.45 L 766.65 334.15 L 764.99 336.84 Z M 744.76 334.15 L 745.78 334.15 L 749.48 329.43 L 753.18 324.72 L 748.46 328.41 L 743.75 332.11 L 743.75 333.13 L 743.75 334.15 Z M 774.42 331.45 L 775.77 331.45 L 777.43 328.76 L 779.10 326.06 L 777.75 326.06 L 776.40 326.06 L 774.74 328.76 L 773.07 331.45 Z M 755.54 326.06 L 756.56 326.06 L 760.26 321.35 L 763.96 316.63 L 759.24 320.33 L 754.53 324.03 L 754.53 325.05 L 754.53 326.06 Z M 782.50 326.06 L 783.85 326.06 L 785.52 323.37 L 787.18 320.67 L 785.83 320.67 L 784.49 320.67 L 782.82 323.37 L 781.16 326.06 Z M 698.78 315.28 L 699.62 315.28 L 707.54 306.53 L 715.45 297.77 L 706.69 305.68 L 697.94 313.60 L 697.94 314.44 L 697.94 315.28 Z M 682.28 288.34 L 683.63 288.34 L 688.51 282.95 L 693.38 277.56 L 692.04 277.56 L 690.69 277.56 L 685.81 282.95 L 680.93 288.34 Z M 292.52 344.65 L 286.99 344.37 L 278.67 342.39 L 270.35 340.40 L 266.83 338.22 L 263.31 336.04 L 254.94 335.08 L 246.57 334.11 L 237.81 331.22 L 229.05 328.34 L 229.05 324.51 L 229.05 320.67 L 230.59 320.67 L 232.13 320.67 L 244.07 327.67 L 256.00 334.66 L 256.00 333.34 L 256.00 332.01 L 242.53 323.37 L 229.05 314.72 L 229.05 306.92 L 229.05 299.12 L 230.73 299.12 L 232.41 299.12 L 249.59 311.38 L 266.78 323.64 L 266.78 322.50 L 266.78 321.35 L 247.92 307.01 L 229.05 292.67 L 229.05 283.44 L 229.05 274.21 L 234.33 277.90 L 239.60 281.60 L 256.56 294.68 L 273.52 307.76 L 258.76 294.68 L 244.00 281.60 L 236.31 274.82 L 228.62 268.04 L 229.51 259.55 L 230.40 251.06 L 253.50 270.37 L 276.60 289.68 L 296.58 307.76 L 316.56 325.83 L 307.31 335.38 L 298.06 344.93 Z M 289.68 339.54 L 291.03 339.54 L 291.03 338.19 L 291.03 336.84 L 289.68 336.84 L 288.34 336.84 L 288.34 338.19 L 288.34 339.54 Z M 281.60 334.15 L 282.95 334.15 L 282.95 332.80 L 282.95 331.45 L 281.60 331.45 L 280.25 331.45 L 280.25 332.80 L 280.25 334.15 Z M 300.88 331.45 L 301.81 331.45 L 301.81 330.52 L 301.81 329.59 L 295.75 324.46 L 289.68 319.33 L 294.82 325.39 L 299.95 331.45 Z M 273.67 328.76 L 274.86 328.76 L 274.86 327.57 L 274.86 326.38 L 271.75 324.46 L 268.64 322.54 L 270.56 325.65 L 272.49 328.76 Z M 287.46 320.67 L 288.34 320.67 L 288.34 319.80 L 288.34 318.92 L 280.93 312.39 L 273.52 305.85 L 280.05 313.26 L 286.58 320.67 Z M 820.77 325.00 L 816.51 326.64 L 816.41 324.33 L 816.32 322.02 L 816.50 259.37 L 816.68 196.72 L 727.02 196.72 L 637.35 196.72 L 574.68 134.09 L 512.01 71.46 L 464.85 118.56 L 417.69 165.67 L 417.69 162.51 L 417.69 159.35 L 410.89 158.49 L 404.09 157.64 L 458.05 103.77 L 512.01 49.90 L 577.37 115.22 L 642.74 180.55 L 736.36 180.55 L 829.98 180.55 L 829.98 251.96 L 829.98 323.37 L 827.51 323.37 L 825.03 323.37 Z M 317.98 323.31 L 316.63 323.26 L 301.81 309.15 L 286.99 295.04 L 258.02 268.33 L 229.05 241.62 L 229.05 232.36 L 229.05 223.10 L 239.16 231.82 L 249.26 240.54 L 284.69 275.22 L 320.11 309.89 L 321.99 309.89 L 323.87 309.89 L 280.50 265.02 L 237.14 220.15 L 237.14 217.87 L 237.14 215.58 L 244.85 215.58 L 252.57 215.58 L 265.64 229.73 L 278.70 243.87 L 307.16 273.52 L 335.61 303.16 L 329.89 296.42 L 324.18 289.68 L 294.13 255.04 L 264.08 220.39 L 264.08 217.98 L 264.08 215.58 L 271.84 215.58 L 279.59 215.58 L 300.11 240.83 L 320.63 266.08 L 325.14 269.80 L 329.64 273.52 L 308.99 247.07 L 288.34 220.63 L 288.34 218.10 L 288.34 215.58 L 295.75 215.67 L 303.16 215.76 L 326.06 246.87 L 348.97 277.99 L 351.66 279.64 L 354.36 281.29 L 351.29 277.40 L 348.22 273.52 L 328.94 246.57 L 309.66 219.62 L 316.88 218.73 L 324.10 217.85 L 327.49 221.43 L 330.88 225.01 L 345.99 247.53 L 361.09 270.04 L 361.09 275.52 L 361.09 280.99 L 340.21 302.17 L 319.33 323.35 L 317.98 323.31 Z M 338.52 285.64 L 339.54 285.64 L 339.54 284.62 L 339.54 283.61 L 334.82 279.91 L 330.11 276.21 L 333.80 280.93 L 337.50 285.64 Z M 207.49 259.01 L 206.15 319.95 L 200.08 317.70 L 194.02 315.46 L 194.02 248.00 L 194.02 180.55 L 287.45 180.55 L 380.88 180.55 L 385.54 176.33 L 390.19 172.12 L 385.78 184.38 L 381.37 196.64 L 295.11 197.35 L 208.84 198.06 Z M 364.66 259.59 L 362.19 268.13 L 352.76 253.31 L 343.33 238.48 L 337.17 228.38 L 331.01 218.27 L 339.12 218.27 L 347.23 218.27 L 357.18 234.66 L 367.14 251.05 Z M 370.19 240.33 L 367.78 248.73 L 360.40 235.16 L 353.01 221.59 L 353.01 218.58 L 353.01 215.58 L 359.42 215.58 L 365.83 215.58 L 369.22 223.75 L 372.60 231.93 Z M 614.58 229.72 L 612.79 231.74 L 602.62 221.32 L 592.44 210.90 L 595.44 199.77 L 598.44 188.63 L 600.48 188.63 L 602.53 188.63 L 612.55 198.89 L 622.57 209.15 L 619.46 218.43 L 616.36 227.71 Z M 605.42 217.38 L 607.21 215.58 L 605.42 213.78 L 603.62 211.99 L 603.62 215.58 L 603.62 219.17 Z M 609.01 207.49 L 611.62 203.45 L 611.62 200.76 L 611.62 198.06 L 609.01 202.11 L 606.40 206.15 L 606.40 208.84 L 606.40 211.54 Z M 374.90 223.22 L 372.62 226.81 L 370.90 222.32 L 369.18 217.83 L 369.18 216.71 L 369.18 215.58 L 373.22 215.58 L 377.26 215.58 L 377.22 217.60 L 377.18 219.62 L 374.90 223.22 Z M 590.35 204.23 L 588.47 207.70 L 583.65 202.38 L 578.84 197.05 L 580.68 186.12 L 582.53 175.19 L 584.63 173.89 L 586.73 172.59 L 591.39 177.74 L 596.04 182.88 L 594.13 191.82 L 592.22 200.76 Z M 440.63 202.07 L 436.64 205.39 L 433.90 198.18 L 431.16 190.98 L 431.16 186.18 L 431.16 181.38 L 436.31 176.72 L 441.46 172.06 L 442.66 175.63 L 443.86 179.20 L 443.20 174.67 L 442.54 170.14 L 448.90 164.16 L 455.27 158.18 L 456.46 161.95 L 457.66 165.73 L 459.37 173.49 L 461.08 181.25 L 454.89 187.84 L 448.70 194.43 L 446.93 188.16 L 445.17 181.89 L 444.90 190.32 L 444.63 198.75 Z M 577.06 189.48 L 575.13 194.37 L 570.51 189.27 L 565.89 184.17 L 565.93 176.29 L 565.97 168.42 L 567.62 162.25 L 569.28 156.08 L 574.32 160.65 L 579.37 165.21 L 579.18 174.90 L 578.99 184.59 L 577.06 189.48 Z M 470.20 173.07 L 464.02 177.71 L 462.41 173.52 L 460.80 169.33 L 460.80 160.53 L 460.80 151.74 L 466.13 146.91 L 471.47 142.09 L 472.64 145.82 L 473.81 149.56 L 475.10 158.99 L 476.39 168.42 Z M 560.56 177.85 L 558.65 177.85 L 554.19 172.92 L 549.73 168.00 L 549.91 158.78 L 550.10 149.56 L 552.02 144.71 L 553.93 139.86 L 559.93 146.25 L 565.92 152.63 L 564.19 165.24 L 562.47 177.85 Z M 479.25 161.68 L 476.97 161.68 L 476.97 147.02 L 476.97 132.35 L 483.03 128.08 L 489.09 123.82 L 489.92 137.66 L 490.74 151.49 L 486.13 156.59 L 481.52 161.68 Z M 544.74 161.60 L 542.99 161.52 L 538.15 154.86 L 533.31 148.21 L 533.94 136.09 L 534.56 123.96 L 536.29 123.96 L 538.01 123.96 L 543.42 130.02 L 548.83 136.08 L 547.66 148.88 L 546.49 161.68 Z M 502.57 140.13 L 495.83 146.46 L 495.83 131.63 L 495.83 116.81 L 502.57 110.48 L 509.31 104.16 L 509.31 118.98 L 509.31 133.80 Z M 527.96 145.50 L 526.41 145.52 L 520.55 139.28 L 514.69 133.04 L 514.69 119.07 L 514.69 105.09 L 516.92 105.09 L 519.14 105.09 L 525.01 111.34 L 530.88 117.59 L 530.20 131.53 L 529.52 145.48 L 527.96 145.50 Z" fill="#81d8d0" fill-rule="nonzero" group-id="2" id="path2689" node-id="24" stroke="none" target-height="898.64996" target-width="894.68" target-x="64.65" target-y="49.9"></path></g></svg>