<?xml version="1.0" standalone="no"?><!DOCTYPE svg PUBLIC "-//W3C//DTD SVG 1.1//EN" "http://www.w3.org/Graphics/SVG/1.1/DTD/svg11.dtd"><svg height="1024" node-id="1" sillyvg="true" template-height="1024" template-width="1024" version="1.1" viewBox="0 0 1024 1024" width="1024" xmlns="http://www.w3.org/2000/svg" xmlns:xlink="http://www.w3.org/1999/xlink"><defs node-id="26"><radialGradient cx="511.99997" cy="511.99994" fx="511.99997" fy="511.99994" gradientUnits="userSpaceOnUse" id="radialGradient928" node-id="8" r="512" spreadMethod="pad"><stop offset="0" stop-color="#fdfbef"></stop><stop offset="1" stop-color="#ded7c7"></stop></radialGradient></defs><g node-id="33"><path d="M 1024.00 512.00 C 1024.00 647.79 970.06 778.02 874.04 874.04 C 778.02 970.06 647.79 1024.00 512.00 1024.00 C 376.21 1024.00 245.98 970.06 149.96 874.04 C 53.94 778.02 0.00 647.79 0.00 512.00 C 0.00 376.21 53.94 245.98 149.96 149.96 C 245.98 53.94 376.21 0.00 512.00 0.00 C 647.79 -0.00 778.02 53.94 874.04 149.96 C 970.06 245.98 1024.00 376.21 1024.00 512.00 Z" fill="url(#radialGradient928)" fill-rule="evenodd" group-id="1" id="path856" node-id="10" stroke="none" target-height="1024" target-width="1024" target-x="0" target-y="0"></path></g><g node-id="34"><path d="M 1.20 230.51 L 1.03 0.56 L 203.19 0.76 C 407.52 0.96 462.51 1.67 441.72 3.85 C 435.98 4.45 417.89 7.94 401.51 11.62 C 311.49 31.81 228.73 75.06 163.88 135.81 C 86.26 208.52 35.02 297.68 11.88 400.30 C 8.23 416.50 4.37 436.66 3.31 445.10 C 1.65 458.31 1.35 428.34 1.20 230.51 Z" fill="#000000" fill-opacity="0" fill-rule="evenodd" group-id="2" id="path2282" node-id="17" stroke="none" target-height="457.75" target-width="461.48" target-x="1.03" target-y="0.56"></path><path d="M 1.20 230.51 L 1.03 0.56 L 203.19 0.76 C 407.52 0.96 462.51 1.67 441.72 3.85 C 435.98 4.45 417.89 7.94 401.51 11.62 C 311.49 31.81 228.73 75.06 163.88 135.81 C 86.26 208.52 35.02 297.68 11.88 400.30 C 8.23 416.50 4.37 436.66 3.31 445.10 C 1.65 458.31 1.35 428.34 1.20 230.51 Z" fill="#000000" fill-opacity="0" fill-rule="evenodd" group-id="2" id="path2284" node-id="18" stroke="none" target-height="457.75" target-width="461.48" target-x="1.03" target-y="0.56"></path><path d="M 1.20 230.51 L 1.03 0.56 L 203.19 0.76 C 407.52 0.96 462.51 1.67 441.72 3.85 C 435.98 4.45 417.89 7.94 401.51 11.62 C 311.49 31.81 228.73 75.06 163.88 135.81 C 86.26 208.52 35.02 297.68 11.88 400.30 C 8.23 416.50 4.37 436.66 3.31 445.10 C 1.65 458.31 1.35 428.34 1.20 230.51 Z" fill="#000000" fill-opacity="0" fill-rule="evenodd" group-id="2" id="path2286" node-id="19" stroke="none" target-height="457.75" target-width="461.48" target-x="1.03" target-y="0.56"></path><path d="M 1021.09 453.52 C 1019.61 429.34 1007.84 377.65 996.03 343.46 C 957.19 231.05 880.32 136.29 776.46 72.78 C 731.86 45.50 679.95 24.85 623.97 12.10 C 606.68 8.17 587.93 4.45 582.30 3.85 C 561.74 1.65 615.79 0.95 820.29 0.76 L 1023.19 0.57 L 1023.19 235.27 C 1023.19 364.36 1022.94 469.97 1022.64 469.97 C 1022.34 469.97 1021.64 462.57 1021.09 453.52 Z" fill="#000000" fill-opacity="0" fill-rule="evenodd" group-id="2" id="path2288" node-id="20" stroke="none" target-height="469.4" target-width="461.45" target-x="561.74" target-y="0.57"></path><path d="M 580.82 1020.45 C 588.87 1019.38 608.61 1015.53 624.69 1011.89 C 798.27 972.66 937.74 848.06 996.02 680.14 C 1006.21 650.79 1017.78 602.91 1020.90 577.27 C 1022.56 563.57 1022.85 593.41 1023.00 792.05 L 1023.17 1022.73 L 794.69 1022.56 C 597.71 1022.42 568.22 1022.13 580.82 1020.45 Z" fill="#000000" fill-opacity="0" fill-rule="evenodd" group-id="2" id="path2290" node-id="21" stroke="none" target-height="459.15997" target-width="454.95" target-x="568.22" target-y="563.57"></path><path d="M 1.20 792.77 C 1.35 596.92 1.66 565.09 3.27 578.17 C 4.31 586.62 8.19 607.01 11.89 623.49 C 43.02 762.33 127.92 879.58 250.34 952.80 C 279.74 970.39 308.55 983.74 343.20 995.84 C 371.66 1005.77 417.23 1016.97 443.37 1020.45 C 455.97 1022.12 426.48 1022.41 229.50 1022.55 L 1.02 1022.72 Z" fill="#000000" fill-opacity="0" fill-rule="evenodd" group-id="2" id="path2292" node-id="22" stroke="none" target-height="457.62994" target-width="454.95" target-x="1.02" target-y="565.09"></path><path d="M 449.12 837.16 C 445.16 832.51 444.75 831.20 445.63 826.04 C 447.91 812.73 448.25 809.22 447.25 809.22 C 445.17 809.22 441.18 817.80 441.18 822.24 C 441.18 828.12 438.63 827.90 433.37 821.57 L 429.23 816.58 L 431.67 809.23 C 434.12 801.84 434.84 801.53 439.82 805.78 C 442.85 808.37 445.22 805.78 465.13 778.18 L 480.66 756.64 L 480.66 736.50 C 480.66 714.40 476.05 684.93 472.59 684.93 C 471.59 684.93 468.56 685.84 465.85 686.97 L 460.92 689.01 L 438.05 674.22 L 415.18 659.44 L 409.89 647.69 C 406.99 641.23 404.61 634.26 404.61 632.20 C 404.62 626.89 396.58 619.68 388.35 617.63 C 377.79 614.99 371.23 607.04 363.66 587.68 C 359.79 577.80 354.61 567.84 350.25 561.87 L 343.13 552.14 L 331.10 552.83 C 324.49 553.22 313.87 554.45 307.51 555.58 C 298.82 557.12 294.42 557.24 289.79 556.08 C 283.90 554.59 283.52 554.16 281.01 545.86 C 279.03 539.32 277.81 537.34 276.06 537.83 C 274.79 538.19 270.78 538.90 267.16 539.42 C 256.92 540.89 256.58 541.10 249.76 549.64 L 243.33 557.70 L 211.38 557.70 L 179.44 557.70 L 170.48 576.35 L 161.53 594.99 L 159.50 616.56 L 157.47 638.12 L 164.87 654.58 C 171.41 669.13 173.56 672.34 183.49 682.36 C 189.66 688.60 195.51 693.70 196.48 693.70 C 200.30 693.70 199.76 690.45 194.09 679.17 L 188.20 667.44 L 188.20 641.35 L 188.20 615.25 L 195.89 604.20 C 202.29 595.01 209.63 587.82 222.87 577.79 C 223.84 577.05 230.98 575.91 238.72 575.24 C 251.14 574.18 254.50 574.45 267.16 577.51 C 275.52 579.54 288.43 584.26 298.10 588.83 C 312.81 595.78 316.59 598.42 331.55 612.11 C 347.25 626.48 349.01 628.66 356.89 643.44 C 364.17 657.10 365.77 661.57 368.31 675.41 C 370.89 689.51 371.13 694.91 370.26 718.92 C 369.72 734.00 369.77 746.34 370.38 746.34 C 370.99 746.34 372.56 745.37 373.87 744.18 C 376.02 742.24 377.20 742.98 385.66 751.52 C 393.83 759.76 394.83 761.34 393.25 763.55 C 392.26 764.94 391.07 767.07 390.62 768.28 C 390.17 769.48 388.53 773.27 386.99 776.69 C 384.27 782.70 383.96 782.90 377.40 782.90 C 371.88 782.90 370.93 782.53 372.26 780.93 C 373.51 779.42 373.21 778.33 370.98 776.32 C 368.12 773.73 368.06 773.77 368.06 778.29 L 368.06 782.90 L 359.98 782.90 L 351.90 782.90 L 354.33 778.15 C 355.67 775.53 359.64 768.32 363.14 762.11 C 366.65 755.91 369.52 750.10 369.52 749.20 C 369.52 744.96 365.43 750.04 356.46 765.41 L 346.68 782.17 L 339.09 782.61 C 332.03 783.02 329.31 781.50 333.02 779.21 C 334.60 778.24 338.30 772.62 345.29 760.60 C 348.56 754.97 348.89 753.65 347.00 753.65 C 345.68 753.65 340.47 759.97 334.94 768.28 L 325.21 782.90 L 318.03 782.90 C 312.70 782.90 311.13 782.43 311.92 781.07 C 312.50 780.07 319.12 770.25 326.63 759.26 C 334.13 748.27 340.28 738.89 340.28 738.42 C 340.28 737.95 339.45 737.59 338.45 737.61 C 337.44 737.64 329.38 747.81 320.53 760.21 L 304.45 782.76 L 296.77 782.83 C 292.55 782.87 289.11 782.41 289.13 781.80 C 289.15 781.20 300.71 765.90 314.82 747.80 C 328.92 729.71 341.16 713.59 342.01 711.98 C 345.63 705.14 329.56 722.82 307.32 750.15 C 294.16 766.31 281.88 780.47 280.03 781.60 C 277.83 782.94 274.30 783.39 269.82 782.91 L 262.98 782.17 L 284.91 757.31 C 296.98 743.64 313.16 724.88 320.88 715.63 C 328.60 706.38 335.36 698.30 335.89 697.67 C 338.09 695.08 341.73 698.85 345.43 707.54 C 348.70 715.23 355.19 722.95 358.39 722.95 C 358.77 722.95 359.88 719.34 360.87 714.93 C 362.43 707.95 362.24 704.33 359.36 686.78 C 356.27 667.94 355.51 665.63 347.69 650.93 C 339.71 635.93 338.58 634.57 322.89 621.13 C 303.54 604.55 288.07 595.74 269.32 590.63 C 240.73 582.84 225.30 586.37 209.94 604.21 C 201.90 613.55 201.67 614.08 199.84 626.79 C 196.86 647.61 199.30 664.80 207.61 681.38 L 214.14 694.43 L 210.47 699.91 C 207.03 705.06 206.35 705.40 199.30 705.40 L 191.80 705.40 L 176.90 690.41 C 163.49 676.92 161.33 673.98 155.36 661.06 L 148.71 646.70 L 148.71 625.29 C 148.71 606.50 149.20 602.18 152.64 589.93 C 155.88 578.41 158.41 573.21 167.14 560.09 L 177.71 544.20 L 195.75 532.67 C 221.38 516.29 236.27 510.87 272.38 504.77 C 283.19 502.95 292.02 500.99 292.02 500.42 C 292.02 499.84 288.57 497.28 284.35 494.72 C 276.41 489.91 274.14 487.31 251.58 457.20 C 238.51 439.76 237.99 438.75 230.74 416.98 L 223.30 394.65 L 223.30 357.68 C 223.30 327.61 223.86 316.96 226.34 300.65 C 229.27 281.35 229.79 279.75 240.09 258.40 C 245.98 246.19 251.54 232.70 252.46 228.42 C 253.74 222.43 255.59 219.12 260.51 214.06 C 264.45 210.01 268.54 203.55 271.17 197.24 C 274.90 188.29 276.63 186.09 285.00 179.69 C 291.50 174.72 296.71 169.05 301.27 161.95 C 307.12 152.84 309.32 150.77 318.64 145.58 C 324.51 142.31 334.24 135.67 340.27 130.82 C 346.29 125.98 353.20 121.58 355.62 121.06 C 358.04 120.53 372.05 116.89 386.74 112.96 C 411.87 106.25 414.89 105.77 437.45 104.88 L 461.43 103.94 L 465.91 107.71 C 469.11 110.40 472.82 111.75 478.82 112.41 C 489.34 113.56 492.63 114.91 500.34 121.23 C 503.91 124.16 510.70 127.56 516.56 129.37 C 524.58 131.85 527.73 133.73 532.00 138.58 C 534.96 141.94 540.58 146.18 544.50 148.02 C 550.47 150.82 552.65 153.05 557.95 161.87 C 561.44 167.65 568.78 176.66 574.27 181.89 C 584.22 191.37 584.28 191.47 592.41 213.64 L 600.57 235.88 L 600.57 258.66 C 600.57 277.79 599.97 284.18 596.78 298.56 C 592.40 318.40 588.50 326.24 573.96 344.53 C 561.42 360.30 543.66 373.20 518.65 384.67 L 501.43 392.58 L 493.24 388.56 C 485.47 384.75 485.05 384.26 485.05 379.07 C 485.05 374.91 487.15 370.28 493.82 359.68 L 502.60 345.75 L 502.60 318.20 L 502.60 290.64 L 494.05 280.50 C 485.90 270.83 484.77 270.07 469.95 264.07 L 454.40 257.78 L 445.02 260.59 C 434.14 263.85 414.86 278.19 414.86 283.02 C 414.86 284.58 412.23 290.65 409.01 296.51 C 403.33 306.86 403.16 307.57 403.16 321.27 C 403.16 334.33 403.60 336.47 409.08 350.24 C 414.51 363.86 416.09 366.26 428.09 379.04 C 436.14 387.62 441.18 394.19 441.18 396.12 C 441.18 399.90 463.63 415.82 469.13 415.93 C 477.70 416.11 491.76 425.86 518.86 450.41 C 546.06 475.06 546.11 475.11 555.79 492.30 C 564.09 507.05 565.48 510.54 565.48 516.72 C 565.48 521.29 567.35 529.10 570.59 538.07 C 574.58 549.07 575.71 554.44 575.71 562.27 C 575.71 567.80 576.15 572.33 576.69 572.33 C 577.23 572.33 582.00 568.18 587.29 563.11 C 600.51 550.45 645.04 522.90 673.81 509.59 C 704.18 495.54 709.54 490.86 719.97 469.29 L 727.77 453.15 L 727.78 437.87 C 727.79 422.91 727.70 422.49 723.48 418.13 L 719.16 413.67 L 698.95 414.95 L 678.73 416.24 L 665.65 425.19 C 655.55 432.11 651.57 435.86 648.14 441.70 C 644.97 447.11 641.95 450.12 637.53 452.27 L 631.36 455.27 L 624.34 450.91 L 617.33 446.55 L 619.17 421.89 C 620.93 398.32 621.30 396.47 627.58 379.92 C 633.95 363.12 634.50 362.25 646.24 350.43 C 659.60 336.98 674.13 326.66 679.70 326.66 C 681.69 326.66 690.69 323.70 699.69 320.08 L 716.06 313.50 L 741.69 313.50 L 767.31 313.50 L 788.86 324.32 C 808.94 334.40 811.22 335.97 822.12 347.35 C 832.83 358.52 834.79 361.56 845.08 382.96 C 856.29 406.25 856.36 406.45 859.32 427.65 L 862.30 448.95 L 856.31 476.62 C 852.09 496.12 848.92 507.11 845.57 513.82 C 842.96 519.06 839.62 526.63 838.15 530.66 C 836.62 534.84 831.09 543.28 825.21 550.40 C 809.14 569.84 767.13 613.28 764.40 613.28 C 763.04 613.28 757.05 617.44 751.08 622.53 C 745.11 627.63 734.40 635.34 727.28 639.67 L 714.33 647.54 L 719.97 649.92 C 723.06 651.22 731.85 653.80 739.49 655.65 C 747.13 657.50 762.59 661.90 773.85 665.43 C 785.11 668.95 807.82 674.45 824.30 677.64 C 859.86 684.53 872.19 684.52 896.54 677.57 C 909.64 673.83 911.73 672.73 918.52 666.02 C 926.92 657.72 931.38 656.72 940.51 661.07 C 945.44 663.43 945.68 663.88 945.68 671.10 C 945.68 676.98 944.24 681.74 939.18 692.57 C 931.45 709.10 927.37 713.10 901.66 729.38 C 884.04 740.55 883.69 740.69 861.04 745.94 L 838.19 751.23 L 782.63 749.49 C 752.06 748.54 713.24 747.77 696.35 747.79 C 659.44 747.82 643.96 750.67 629.30 760.12 C 620.74 765.64 620.14 767.60 626.76 768.52 C 629.42 768.89 630.86 770.58 632.60 775.36 C 634.79 781.41 634.77 781.80 632.00 783.82 C 626.92 787.53 623.39 785.80 621.93 778.88 C 621.21 775.46 620.10 772.67 619.46 772.67 C 616.72 772.67 616.57 776.18 619.01 782.95 L 621.61 790.19 L 617.45 794.54 C 615.16 796.93 612.77 798.57 612.15 798.19 C 611.53 797.81 609.92 794.15 608.56 790.07 C 606.83 784.85 605.64 783.10 604.55 784.19 C 603.46 785.27 603.80 788.38 605.70 794.64 L 608.39 803.54 L 603.90 808.03 C 598.52 813.41 596.18 812.46 596.18 804.91 C 596.18 801.06 595.43 799.01 593.78 798.38 C 590.11 796.97 589.98 797.94 592.54 807.80 L 594.90 816.94 L 590.14 821.86 C 587.52 824.56 584.84 826.77 584.20 826.77 C 583.55 826.77 583.02 823.83 583.02 820.24 C 583.02 815.21 582.35 813.36 580.10 812.15 C 576.59 810.27 576.51 810.95 578.75 823.07 C 580.31 831.52 580.28 831.65 575.85 836.08 C 571.47 840.46 571.32 840.49 569.20 837.69 C 567.72 835.73 567.01 831.16 566.98 823.32 L 566.93 811.83 L 577.08 795.54 C 586.82 779.89 587.92 778.70 605.23 765.37 C 630.79 745.66 638.67 741.95 667.10 736.22 L 690.50 731.50 L 745.34 735.00 C 799.63 738.47 800.50 738.48 833.08 736.01 C 852.13 734.57 869.67 732.47 874.75 731.02 C 880.95 729.26 889.34 724.55 903.27 715.03 C 922.18 702.09 923.27 701.07 929.21 690.67 C 933.81 682.62 935.41 678.21 935.43 673.60 C 935.45 664.90 932.41 665.42 921.59 675.98 C 911.86 685.46 907.88 686.93 874.02 693.62 C 859.18 696.54 858.44 696.56 851.91 694.07 C 845.65 691.68 842.47 691.62 808.77 693.22 C 772.59 694.93 772.19 694.92 735.10 690.68 C 698.02 686.45 697.60 686.43 659.79 688.09 L 621.77 689.75 L 613.22 697.07 C 605.63 703.57 602.58 705.02 586.17 710.01 C 571.77 714.37 565.22 715.62 556.66 715.63 L 545.65 715.64 L 509.75 751.83 C 465.50 796.44 461.13 802.66 458.61 824.71 C 456.58 842.47 455.19 844.29 449.12 837.16 Z M 376.78 771.30 C 378.72 767.68 378.69 766.82 376.63 766.81 C 374.93 766.81 371.12 771.05 371.03 773.03 C 370.93 775.33 375.34 774.00 376.78 771.30 Z M 381.22 763.89 C 381.22 763.09 380.23 762.43 379.03 762.43 C 377.82 762.43 376.83 763.09 376.83 763.89 C 376.83 764.69 377.82 765.35 379.03 765.35 C 380.23 765.35 381.22 764.69 381.22 763.89 Z M 351.97 751.58 C 351.97 751.24 352.37 749.93 352.86 748.66 C 354.17 745.26 350.12 745.76 347.93 749.27 C 346.33 751.83 346.47 752.19 349.04 752.19 C 350.65 752.19 351.97 751.92 351.97 751.58 Z M 360.49 737.40 C 363.16 733.32 365.03 729.67 364.65 729.28 C 363.23 727.86 357.94 732.47 355.01 737.68 C 351.48 743.97 351.32 744.89 353.80 744.85 C 354.81 744.84 357.82 741.49 360.49 737.40 Z M 344.66 733.18 C 345.87 730.94 345.78 730.26 344.28 730.26 C 342.13 730.26 338.81 733.09 338.81 734.94 C 338.81 737.31 343.15 736.01 344.66 733.18 Z M 527.93 714.45 C 533.70 709.78 540.72 705.07 543.54 703.99 C 546.35 702.91 557.87 695.42 569.13 687.34 C 584.59 676.24 592.13 671.82 599.93 669.26 C 605.62 667.39 618.37 661.60 628.29 656.39 L 646.31 646.91 L 672.08 646.91 L 697.84 646.91 L 733.65 622.05 C 755.85 606.64 772.67 593.83 777.88 588.37 L 786.28 579.57 L 786.28 562.14 C 786.29 545.50 786.51 544.22 791.15 534.03 C 794.94 525.73 797.16 522.73 801.10 520.61 C 804.67 518.68 807.53 515.22 810.74 508.91 L 815.30 499.95 L 813.26 486.79 C 812.13 479.55 811.19 465.03 811.18 454.53 L 811.15 435.44 L 801.03 430.55 C 791.58 425.97 790.25 424.70 780.51 410.89 C 772.70 399.82 766.41 393.01 755.41 383.69 C 741.74 372.12 739.81 370.99 727.32 367.26 C 714.66 363.48 672.20 355.91 663.64 355.91 C 660.77 355.91 657.49 358.19 651.52 364.32 C 643.97 372.08 642.83 374.20 636.70 391.85 C 630.89 408.57 629.93 413.11 629.01 428.04 C 627.99 444.67 628.04 445.11 630.99 445.11 C 633.17 445.11 635.79 442.23 640.33 434.82 C 646.24 425.17 647.55 424.01 661.45 416.00 L 676.26 407.46 L 694.35 405.84 C 711.43 404.32 713.00 404.41 722.46 407.46 C 732.23 410.61 732.58 410.89 736.72 419.08 C 740.39 426.37 740.95 429.11 740.95 439.80 C 740.95 451.49 740.59 452.90 733.78 467.49 C 728.93 477.86 723.00 487.39 715.53 496.76 L 704.47 510.66 L 682.86 519.00 C 670.98 523.58 660.21 528.52 658.94 529.96 C 657.66 531.40 649.25 536.28 640.24 540.80 C 630.63 545.61 618.00 553.60 609.66 560.11 C 588.61 576.57 559.85 605.12 548.54 620.79 C 543.10 628.32 536.74 636.78 534.40 639.60 C 531.93 642.56 526.83 653.62 522.24 665.92 L 514.35 687.12 L 514.32 705.03 C 514.30 716.89 514.83 722.95 515.87 722.95 C 516.74 722.95 522.17 719.12 527.93 714.45 Z M 504.06 668.25 C 504.06 660.95 517.42 634.57 528.96 619.09 L 540.43 603.70 L 538.88 592.03 C 537.84 584.17 535.49 576.26 531.66 567.75 C 526.52 556.30 525.99 553.97 525.99 542.78 L 525.99 530.44 L 512.47 518.37 C 498.10 505.55 475.07 492.38 460.69 488.77 C 456.47 487.71 448.25 483.29 440.34 477.81 C 433.04 472.77 420.78 465.93 413.10 462.62 C 401.30 457.54 398.40 455.60 394.53 450.21 C 392.01 446.69 386.59 440.15 382.49 435.66 L 375.04 427.51 L 376.08 417.77 C 376.66 412.42 377.42 407.27 377.78 406.33 C 378.14 405.39 375.48 401.06 371.87 396.71 C 365.57 389.14 365.39 388.66 367.56 385.34 C 369.49 382.38 369.59 380.24 368.20 370.90 L 366.57 359.94 L 379.01 346.38 L 391.46 332.82 L 391.46 318.00 C 391.46 303.98 391.74 302.64 396.58 293.02 C 399.40 287.44 401.70 281.36 401.70 279.53 C 401.71 277.19 405.40 272.99 414.28 265.24 C 425.15 255.76 428.54 253.71 439.24 250.10 L 451.63 245.92 L 460.66 249.14 C 481.75 256.68 489.96 261.67 500.33 273.26 C 509.24 283.21 510.52 285.43 513.17 295.61 C 515.92 306.19 515.99 308.24 514.31 327.39 L 512.50 347.86 L 503.89 363.35 C 499.16 371.86 495.29 379.26 495.29 379.80 C 495.29 387.46 552.38 354.57 560.52 342.21 C 562.72 338.89 568.02 331.81 572.31 326.49 C 579.41 317.69 580.51 315.29 584.57 299.77 L 589.03 282.71 L 585.66 278.44 C 583.58 275.81 580.88 274.15 578.58 274.10 C 573.45 273.99 565.92 264.59 557.43 247.69 C 553.65 240.16 547.17 230.10 543.03 225.33 C 534.66 215.69 528.68 212.44 499.32 201.59 C 486.32 196.79 478.55 192.75 467.32 184.97 C 453.99 175.74 451.10 174.38 438.70 171.51 C 425.37 168.43 423.87 168.38 393.20 170.06 C 367.09 171.49 315.01 177.03 302.99 179.66 C 301.37 180.01 295.94 183.36 290.92 187.09 C 283.86 192.34 281.79 194.72 281.79 197.62 C 281.79 199.99 278.02 206.38 271.55 214.99 C 264.12 224.89 261.32 229.82 261.32 233.05 C 261.32 235.66 256.74 246.63 250.22 259.66 C 239.84 280.37 238.92 282.98 236.20 299.49 C 234.24 311.44 233.06 327.31 232.55 348.59 L 231.81 380.03 L 237.09 399.77 C 244.19 426.33 248.80 437.14 256.45 445.15 C 259.93 448.80 262.78 452.63 262.78 453.66 C 262.78 458.66 280.19 477.48 294.22 487.65 C 302.26 493.47 313.17 502.08 318.47 506.77 C 327.38 514.65 328.63 515.30 335.15 515.30 C 339.69 515.30 351.40 518.23 367.93 523.50 C 392.35 531.29 394.11 532.10 402.65 539.58 C 407.60 543.92 412.87 547.47 414.37 547.47 C 415.94 547.47 427.36 557.81 441.43 571.96 C 464.77 595.43 466.10 597.10 473.42 611.81 C 477.63 620.26 483.22 634.47 485.85 643.40 C 488.48 652.34 492.35 663.04 494.46 667.20 C 497.85 673.89 498.62 674.57 501.17 673.21 C 502.78 672.35 504.06 670.15 504.06 668.25 Z" fill="#000000" fill-opacity="0" fill-rule="evenodd" group-id="2" id="path2294" node-id="23" stroke="none" target-height="740.35" target-width="796.97" target-x="148.71" target-y="103.94"></path><path d="M 512.08 956.00 L 510.70 956.00 L 446.06 891.48 L 381.42 826.96 L 289.43 827.81 L 197.44 828.65 L 197.44 736.01 L 197.44 643.37 L 132.72 578.73 L 68.00 514.08 L 132.72 449.44 L 197.44 384.80 L 197.44 292.41 L 197.44 200.02 L 290.46 200.02 L 383.48 200.02 L 448.09 134.01 L 512.71 68.00 L 577.15 134.05 L 641.59 200.11 L 734.18 200.06 L 826.77 200.02 L 826.77 291.99 L 826.77 383.96 L 890.12 447.85 L 953.47 511.74 L 954.73 513.02 L 956.00 514.29 L 891.42 578.81 L 826.84 643.32 L 826.11 735.04 L 825.38 826.76 L 734.21 826.76 L 643.04 826.76 L 578.25 891.38 L 513.45 956.00 Z M 506.97 917.09 L 509.32 917.09 L 509.32 905.01 L 509.32 892.94 L 504.10 888.22 L 498.87 883.50 L 497.13 888.01 L 495.40 892.53 L 495.40 899.73 L 495.40 906.92 L 500.01 912.01 L 504.61 917.09 Z M 523.24 912.92 L 528.81 907.89 L 528.81 893.99 L 528.81 880.10 L 523.24 885.13 L 517.67 890.16 L 517.67 904.05 L 517.67 917.95 Z M 489.30 887.78 L 490.17 874.50 L 484.43 868.78 L 478.69 863.05 L 478.69 876.65 L 478.69 890.25 L 483.56 895.65 L 488.44 901.06 Z M 543.03 893.20 L 548.31 888.43 L 548.31 878.21 L 548.31 867.99 L 546.44 866.13 L 544.58 864.27 L 540.14 868.28 L 535.71 872.28 L 536.73 885.12 L 537.75 897.96 Z M 471.47 869.98 L 473.99 858.36 L 468.28 852.66 L 462.58 846.97 L 460.61 858.58 L 458.65 870.19 L 463.80 875.89 L 468.94 881.60 Z M 557.89 878.18 L 561.90 878.18 L 564.03 874.74 L 566.15 871.31 L 565.31 861.54 L 564.47 851.77 L 563.10 849.56 L 561.73 847.34 L 557.80 850.59 L 553.87 853.84 L 553.87 866.01 L 553.87 878.18 Z M 454.03 859.60 L 456.02 854.55 L 456.22 847.25 L 456.41 839.95 L 452.48 836.69 L 448.55 833.44 L 447.30 835.66 L 446.04 837.88 L 444.13 845.85 L 442.22 853.82 L 447.13 859.23 L 452.03 864.64 L 454.03 859.60 Z M 573.34 861.50 L 575.47 861.50 L 578.68 857.64 L 581.89 853.79 L 580.02 842.13 L 578.15 830.48 L 572.77 835.85 L 567.39 841.22 L 569.30 851.36 L 571.20 861.50 Z M 436.88 846.24 L 438.99 844.94 L 440.75 836.15 L 442.51 827.35 L 439.37 823.58 L 436.24 819.81 L 434.10 819.81 L 431.97 819.81 L 430.10 829.75 L 428.23 839.69 L 431.50 843.62 L 434.77 847.54 Z M 592.05 844.04 L 596.35 839.75 L 594.48 829.78 L 592.61 819.81 L 590.29 819.81 L 587.97 819.81 L 584.93 823.47 L 581.89 827.13 L 584.82 837.73 L 587.75 848.33 Z M 537.22 838.98 L 541.44 839.27 L 551.80 832.24 L 562.16 825.22 L 563.82 818.63 L 565.47 812.04 L 564.55 805.60 L 563.62 799.16 L 554.43 792.99 L 545.24 786.83 L 529.37 784.83 L 513.50 782.83 L 496.76 785.67 L 480.02 788.51 L 465.43 794.78 L 450.84 801.04 L 450.84 803.10 L 450.84 805.15 L 464.54 817.94 L 478.23 830.72 L 491.69 829.18 L 505.14 827.63 L 519.07 833.16 L 532.99 838.70 Z M 425.29 825.07 L 429.11 815.74 L 426.55 811.69 L 423.99 807.64 L 421.09 806.67 L 418.19 805.71 L 416.51 816.06 L 414.82 826.41 L 418.15 830.41 L 421.48 834.41 Z M 606.06 830.07 L 610.28 825.85 L 608.40 815.88 L 606.53 805.92 L 604.21 805.92 L 601.90 805.92 L 598.52 809.98 L 595.14 814.04 L 598.49 824.16 L 601.83 834.28 Z M 408.02 819.81 L 408.64 819.81 L 411.89 809.98 L 415.15 800.14 L 411.61 795.89 L 408.08 791.64 L 404.50 798.08 L 400.92 804.53 L 400.82 808.83 L 400.72 813.14 L 404.06 816.48 L 407.40 819.81 L 408.02 819.81 Z M 619.48 817.97 L 623.49 816.44 L 623.36 811.87 L 623.24 807.31 L 619.82 799.31 L 616.40 791.32 L 612.73 795.73 L 609.06 800.14 L 612.27 809.83 L 615.47 819.51 L 619.48 817.97 Z M 400.07 798.21 L 403.59 788.14 L 399.57 784.13 L 395.55 780.11 L 391.16 790.61 L 386.76 801.11 L 391.65 804.69 L 396.54 808.28 Z M 634.30 806.81 L 639.85 805.36 L 637.24 798.50 L 634.62 791.64 L 631.65 786.09 L 628.67 780.54 L 624.85 783.70 L 621.04 786.87 L 622.18 790.14 L 623.33 793.41 L 626.04 800.83 L 628.75 808.25 Z M 310.84 805.80 L 318.57 805.68 L 339.02 774.88 L 359.46 744.09 L 355.50 740.14 L 351.55 736.19 L 341.64 750.90 L 331.72 765.62 L 317.42 785.77 L 303.11 805.92 L 310.84 805.80 Z M 332.14 805.92 L 339.08 805.92 L 353.63 781.60 L 368.18 757.28 L 369.10 755.51 L 370.03 753.74 L 366.21 750.58 L 362.39 747.42 L 345.81 773.19 L 329.23 798.97 L 327.22 802.44 L 325.21 805.92 Z M 354.08 805.87 L 360.34 805.82 L 370.84 786.06 L 381.33 766.31 L 378.18 762.52 L 375.03 758.73 L 372.72 760.15 L 370.41 761.58 L 359.11 782.00 L 347.81 802.43 L 347.81 804.17 L 347.81 805.92 L 354.08 805.87 Z M 735.30 805.92 L 743.94 805.92 L 736.65 796.88 L 729.36 787.85 L 706.79 758.67 L 684.22 729.48 L 681.24 729.48 L 678.25 729.48 L 677.29 732.38 L 676.32 735.27 L 697.49 762.95 L 718.66 790.63 L 722.66 798.27 L 726.66 805.92 Z M 235.44 803.14 L 244.09 803.14 L 286.43 758.52 L 328.76 713.91 L 325.42 709.89 L 322.08 705.87 L 298.42 730.18 L 274.76 754.50 L 250.78 778.82 L 226.80 803.14 Z M 264.82 802.99 L 274.02 802.84 L 300.47 770.79 L 326.93 738.75 L 333.15 730.95 L 339.38 723.15 L 335.63 720.05 L 331.88 716.94 L 293.75 760.04 L 255.61 803.14 Z M 291.32 802.97 L 299.08 802.81 L 322.75 769.77 L 346.42 736.72 L 346.42 733.10 L 346.42 729.48 L 342.95 729.48 L 339.48 729.48 L 314.14 761.45 L 288.80 793.41 L 286.18 798.27 L 283.57 803.14 L 291.32 802.97 Z M 373.67 803.14 L 380.12 803.14 L 386.34 790.34 L 392.57 777.55 L 389.34 773.67 L 386.11 769.78 L 384.12 769.78 L 382.12 769.78 L 378.54 777.43 L 374.96 785.07 L 371.10 794.10 L 367.23 803.14 Z M 651.30 803.14 L 656.91 803.14 L 656.91 801.81 L 656.91 800.48 L 649.36 785.13 L 641.82 769.78 L 639.53 769.78 L 637.24 769.78 L 635.52 774.25 L 633.81 778.71 L 639.75 790.92 L 645.70 803.14 Z M 669.88 803.14 L 676.59 803.14 L 673.36 796.88 L 670.13 790.63 L 660.46 774.53 L 650.79 758.44 L 646.91 761.65 L 643.02 764.87 L 653.09 784.00 L 663.17 803.14 Z M 689.63 803.13 L 695.89 803.14 L 695.89 801.53 L 695.89 799.92 L 678.85 773.67 L 661.82 747.41 L 657.92 750.64 L 654.03 753.86 L 661.40 766.69 L 668.76 779.51 L 676.06 791.32 L 683.36 803.13 L 689.63 803.13 Z M 711.71 803.14 L 718.63 803.14 L 717.70 800.81 L 716.78 798.48 L 694.71 767.52 L 672.64 736.56 L 668.98 739.59 L 665.32 742.62 L 667.21 745.78 L 669.11 748.94 L 686.94 776.04 L 704.78 803.14 Z M 760.31 803.14 L 768.55 803.14 L 741.51 771.87 L 714.48 740.60 L 703.47 728.51 L 692.47 716.42 L 688.56 720.33 L 684.64 724.24 L 699.39 740.76 L 714.15 757.28 L 733.11 780.21 L 752.06 803.14 Z M 788.63 803.14 L 797.37 803.14 L 779.37 784.38 L 761.37 765.61 L 732.27 735.84 L 703.16 706.07 L 699.53 709.08 L 695.90 712.09 L 704.62 722.18 L 713.34 732.26 L 746.62 767.70 L 779.90 803.14 Z M 242.69 776.10 L 265.66 753.35 L 292.12 728.41 L 318.57 703.48 L 315.21 700.07 L 311.86 696.65 L 299.90 707.33 L 287.94 718.01 L 253.83 749.87 L 219.72 781.73 L 219.72 790.28 L 219.72 798.84 Z M 802.58 794.67 L 804.84 794.80 L 803.97 787.12 L 803.10 779.44 L 759.34 738.48 L 715.58 697.52 L 712.86 697.52 L 710.14 697.52 L 708.18 700.68 L 706.22 703.85 L 753.27 749.19 L 800.31 794.53 L 802.58 794.67 Z M 224.32 767.00 L 226.14 767.00 L 250.08 745.41 L 274.02 723.82 L 291.49 708.95 L 308.96 694.08 L 305.83 690.32 L 302.71 686.57 L 291.09 695.52 L 279.46 704.47 L 251.06 728.09 L 222.65 751.72 L 222.57 759.36 L 222.50 767.00 Z M 802.40 766.89 L 804.49 767.00 L 804.49 760.46 L 804.49 753.91 L 778.73 731.87 L 752.98 709.83 L 738.31 697.82 L 723.64 685.80 L 719.65 689.11 L 715.65 692.42 L 738.49 712.71 L 761.33 732.99 L 780.82 749.88 L 800.31 766.78 L 802.40 766.89 Z M 257.86 714.86 L 295.99 685.01 L 294.75 682.23 L 293.51 679.46 L 290.25 679.80 L 287.00 680.15 L 253.36 704.65 L 219.72 729.15 L 219.72 736.93 L 219.72 744.71 Z M 496.67 744.19 L 502.36 743.38 L 503.06 729.48 L 503.76 715.59 L 505.27 706.55 L 506.79 697.52 L 509.45 697.52 L 512.10 697.52 L 512.10 718.27 L 512.10 739.02 L 517.02 741.64 L 521.93 744.26 L 531.28 740.34 L 540.62 736.42 L 536.91 731.96 L 533.20 727.49 L 538.66 723.48 L 544.13 719.46 L 545.01 726.56 L 545.89 733.65 L 549.88 733.65 L 553.87 733.65 L 559.12 728.42 L 564.36 723.19 L 563.07 712.05 L 561.78 700.91 L 564.79 699.05 L 567.80 697.19 L 567.80 704.08 L 567.80 710.96 L 569.49 715.36 L 571.18 719.76 L 573.66 719.76 L 576.14 719.76 L 586.21 710.28 L 596.27 700.80 L 591.09 679.68 L 585.90 658.56 L 582.62 659.81 L 579.34 661.06 L 576.01 657.06 L 572.68 653.05 L 565.00 653.05 L 557.31 653.05 L 555.67 646.80 L 554.03 640.54 L 555.69 630.17 L 557.35 619.80 L 561.61 616.28 L 565.86 612.75 L 600.61 611.76 L 635.36 610.77 L 654.86 618.40 L 674.35 626.04 L 683.23 615.49 L 692.10 604.93 L 692.45 568.54 L 692.79 532.15 L 687.10 511.30 L 681.41 490.46 L 674.03 476.73 L 666.65 463.00 L 667.23 437.82 L 667.82 412.64 L 670.41 400.13 L 673.00 387.62 L 673.31 399.38 L 673.61 411.15 L 676.65 431.35 L 679.69 451.55 L 681.30 461.28 L 682.91 471.00 L 684.97 455.72 L 687.04 440.43 L 690.58 407.31 L 694.12 374.20 L 690.78 347.86 L 687.45 321.53 L 682.12 309.50 L 676.79 297.48 L 664.68 284.18 L 652.57 270.89 L 639.10 254.79 L 625.64 238.69 L 609.37 230.49 L 593.10 222.29 L 572.02 215.23 L 550.95 208.17 L 529.44 206.60 L 507.93 205.03 L 480.81 209.47 L 453.70 213.91 L 427.35 222.34 L 401.00 230.76 L 386.24 242.41 L 371.48 254.05 L 365.43 261.08 L 359.39 268.11 L 345.33 282.68 L 331.27 297.25 L 327.08 311.86 L 322.89 326.48 L 318.64 351.16 L 314.40 375.85 L 314.70 397.02 L 315.00 418.20 L 316.86 434.87 L 318.72 451.55 L 320.92 438.24 L 323.12 424.93 L 327.26 415.05 L 331.40 405.16 L 332.28 388.65 L 333.16 372.14 L 334.69 370.61 L 336.21 369.09 L 338.22 385.10 L 340.22 401.11 L 338.44 426.13 L 336.66 451.15 L 333.56 468.92 L 330.46 486.69 L 332.10 502.47 L 333.73 518.25 L 335.54 534.23 L 337.36 550.21 L 334.00 554.25 L 330.64 558.30 L 326.95 570.51 L 323.27 582.73 L 328.16 593.57 L 333.05 604.41 L 341.55 613.45 L 350.05 622.48 L 354.06 622.48 L 358.08 622.48 L 374.53 616.77 L 390.97 611.07 L 414.64 611.10 L 438.31 611.13 L 450.35 614.72 L 462.40 618.31 L 462.19 620.39 L 461.98 622.48 L 461.98 633.53 L 461.98 644.58 L 452.62 653.08 L 443.26 661.58 L 438.43 679.40 L 433.60 697.23 L 435.46 708.24 L 437.33 719.26 L 442.44 723.88 L 447.55 728.50 L 449.39 722.04 L 451.22 715.59 L 454.51 707.25 L 457.80 698.91 L 459.20 715.53 L 460.59 732.16 L 468.47 734.91 L 476.35 737.66 L 481.63 730.79 L 486.92 723.92 L 486.98 732.49 L 487.04 741.06 L 489.02 743.03 L 490.99 745.00 L 496.67 744.19 Z M 501.73 666.77 L 499.57 666.60 L 493.39 664.11 L 487.20 661.63 L 479.02 648.51 L 470.85 635.40 L 473.55 628.24 L 476.25 621.09 L 482.58 609.97 L 488.91 598.85 L 495.17 583.09 L 501.43 567.33 L 506.59 562.67 L 511.75 558.01 L 514.75 559.86 L 517.75 561.71 L 523.58 573.33 L 529.41 584.96 L 537.87 593.85 L 546.34 602.74 L 546.59 616.08 L 546.84 629.43 L 545.06 638.29 L 543.28 647.15 L 541.62 649.83 L 539.96 652.50 L 531.64 655.40 L 523.32 658.29 L 519.13 654.11 L 514.93 649.92 L 511.95 651.75 L 508.98 653.59 L 506.43 660.27 L 503.89 666.95 L 501.73 666.77 Z M 396.14 584.00 L 390.97 588.60 L 379.45 578.44 L 367.93 568.28 L 363.52 559.54 L 359.11 550.80 L 357.39 540.08 L 355.68 529.37 L 358.52 508.95 L 361.35 488.52 L 362.63 487.25 L 363.91 485.98 L 387.19 483.05 L 410.47 480.12 L 428.57 479.92 L 446.67 479.72 L 463.37 487.87 L 480.08 496.02 L 480.97 502.27 L 481.86 508.53 L 483.45 508.53 L 485.04 508.53 L 488.38 503.96 L 491.73 499.39 L 493.47 523.97 L 495.21 548.55 L 493.98 549.78 L 492.75 551.01 L 488.74 547.69 L 484.74 544.37 L 478.23 550.16 L 471.73 555.95 L 459.64 566.14 L 447.56 576.33 L 424.43 577.86 L 401.30 579.40 L 396.14 584.00 Z M 615.86 583.34 L 602.61 583.12 L 587.96 578.81 L 573.31 574.50 L 560.11 558.20 L 546.91 541.90 L 543.19 541.89 L 539.48 541.88 L 546.67 529.02 L 553.87 516.16 L 553.87 509.73 L 553.87 503.29 L 551.04 501.55 L 548.21 499.80 L 549.82 497.21 L 551.42 494.63 L 558.91 494.59 L 566.41 494.56 L 578.22 487.82 L 590.04 481.07 L 599.76 482.65 L 609.48 484.22 L 617.66 480.84 L 625.84 477.46 L 646.17 488.13 L 666.49 498.80 L 671.47 507.43 L 676.44 516.06 L 677.82 532.22 L 679.20 548.38 L 667.19 559.86 L 655.19 571.34 L 642.15 577.45 L 629.12 583.57 L 615.86 583.34 Z M 506.54 461.05 L 485.65 460.91 L 471.20 457.02 L 456.74 453.14 L 446.33 448.17 L 435.93 443.21 L 434.65 439.29 L 433.38 435.38 L 437.95 437.13 L 442.52 438.88 L 465.46 443.52 L 488.41 448.16 L 521.84 446.54 L 555.27 444.93 L 570.08 441.71 L 584.89 438.50 L 586.48 440.09 L 588.08 441.68 L 574.48 447.50 L 560.88 453.32 L 544.15 457.26 L 527.42 461.19 L 506.54 461.05 Z M 803.80 744.69 L 804.49 744.77 L 804.47 737.13 L 804.45 729.48 L 770.08 703.77 L 735.72 678.07 L 732.68 678.07 L 729.64 678.07 L 728.15 680.47 L 726.66 682.88 L 756.30 706.18 L 785.94 729.48 L 794.52 737.05 L 803.10 744.61 L 803.80 744.69 Z M 224.06 719.76 L 225.61 719.76 L 235.89 711.82 L 246.17 703.89 L 267.70 688.49 L 289.22 673.10 L 285.08 669.66 L 280.94 666.23 L 251.77 685.35 L 222.60 704.47 L 222.55 712.11 L 222.50 719.76 Z M 804.03 715.61 L 804.96 711.09 L 803.48 707.24 L 802.00 703.39 L 773.06 684.15 L 744.13 664.91 L 741.35 669.31 L 738.56 673.71 L 770.83 696.92 L 803.10 720.12 Z M 242.69 684.83 L 262.88 672.56 L 269.84 667.12 L 276.80 661.69 L 273.53 658.42 L 270.26 655.14 L 246.38 669.76 L 222.50 684.38 L 222.50 690.74 L 222.50 697.10 Z M 804.03 693.41 L 804.96 688.86 L 803.59 685.29 L 802.22 681.73 L 779.16 668.69 L 756.09 655.64 L 752.45 657.04 L 748.80 658.44 L 748.82 660.61 L 748.84 662.78 L 775.97 680.37 L 803.10 697.96 L 804.03 693.41 Z M 238.51 667.99 L 257.31 657.63 L 262.24 654.34 L 267.18 651.05 L 263.05 647.63 L 258.91 644.21 L 239.32 654.77 L 219.72 665.34 L 219.72 671.84 L 219.72 678.34 Z M 803.72 678.07 L 804.49 678.07 L 804.49 671.30 L 804.49 664.54 L 785.71 654.59 L 766.94 644.64 L 763.21 646.07 L 759.47 647.50 L 760.50 650.58 L 761.53 653.66 L 775.35 661.00 L 789.18 668.34 L 796.06 673.20 L 802.95 678.07 Z M 239.21 651.00 L 255.92 643.80 L 255.92 641.82 L 255.92 639.84 L 252.03 636.61 L 248.14 633.39 L 235.32 639.61 L 222.50 645.82 L 222.50 652.01 L 222.50 658.19 Z M 803.80 658.48 L 804.49 658.61 L 804.49 652.14 L 804.49 645.66 L 790.67 639.20 L 776.85 632.74 L 772.34 636.48 L 767.82 640.23 L 785.46 649.28 L 803.10 658.34 L 803.80 658.48 Z M 225.26 639.04 L 226.68 638.92 L 235.94 633.99 L 245.20 629.07 L 240.92 625.52 L 236.64 621.98 L 226.88 625.19 L 217.12 628.41 L 220.48 633.78 L 223.84 639.15 L 225.26 639.04 Z M 802.08 639.08 L 803.84 639.15 L 805.27 633.72 L 806.69 628.28 L 797.13 625.13 L 787.57 621.98 L 783.14 625.65 L 778.70 629.32 L 789.51 634.16 L 800.31 639.01 L 802.08 639.08 Z M 215.40 625.13 L 218.33 625.01 L 226.33 621.59 L 234.34 618.18 L 230.03 614.61 L 225.71 611.03 L 215.75 612.89 L 205.79 614.76 L 205.79 616.67 L 205.79 618.59 L 209.14 621.92 L 212.48 625.26 Z M 814.93 621.69 L 818.41 619.02 L 818.41 616.85 L 818.41 614.68 L 809.65 611.63 L 800.88 608.58 L 797.12 611.70 L 793.35 614.82 L 793.35 616.86 L 793.35 618.90 L 802.40 621.62 L 811.45 624.35 Z M 206.93 609.77 L 215.54 607.93 L 217.76 606.62 L 219.99 605.31 L 216.63 601.26 L 213.26 597.22 L 204.66 599.06 L 196.05 600.90 L 193.83 602.21 L 191.60 603.52 L 194.96 607.56 L 198.33 611.61 Z M 822.73 611.24 L 825.65 611.36 L 829.00 608.03 L 832.34 604.69 L 832.34 602.59 L 832.34 600.50 L 822.56 598.67 L 812.78 596.83 L 808.29 600.56 L 803.79 604.28 L 811.80 607.70 L 819.81 611.11 L 822.73 611.24 Z M 193.62 594.60 L 203.45 592.39 L 204.69 591.16 L 205.93 589.92 L 202.00 586.66 L 198.06 583.40 L 186.52 585.25 L 174.97 587.09 L 179.38 591.95 L 183.79 596.82 Z M 836.78 597.34 L 839.83 597.46 L 844.53 592.28 L 849.24 587.09 L 837.69 585.25 L 826.15 583.40 L 821.93 586.89 L 817.71 590.39 L 825.72 593.80 L 833.73 597.21 L 836.78 597.34 Z M 173.34 582.22 L 176.56 581.25 L 184.46 579.52 L 192.36 577.78 L 188.99 573.73 L 185.62 569.67 L 177.84 569.67 L 170.05 569.67 L 165.53 571.40 L 161.00 573.14 L 165.56 578.17 L 170.12 583.19 Z M 849.40 580.47 L 856.72 580.79 L 859.91 576.94 L 863.11 573.10 L 858.64 571.39 L 854.16 569.67 L 846.37 569.67 L 838.59 569.67 L 835.32 573.61 L 832.04 577.54 L 837.06 578.84 L 842.08 580.14 Z M 162.22 565.72 L 170.29 564.11 L 174.74 564.11 L 179.19 564.11 L 173.32 558.26 L 167.45 552.40 L 155.81 554.36 L 144.17 556.32 L 149.16 561.83 L 154.15 567.33 Z M 868.70 566.42 L 870.26 566.89 L 875.66 562.78 L 881.07 558.66 L 876.89 555.87 L 872.72 553.08 L 864.10 553.04 L 855.48 553.00 L 850.60 558.37 L 845.73 563.75 L 856.44 564.85 L 867.15 565.96 L 868.70 566.42 Z M 149.14 547.44 L 164.03 547.44 L 158.46 541.88 L 152.89 536.32 L 138.53 536.32 L 124.18 536.32 L 129.22 541.88 L 134.26 547.44 Z M 876.03 547.44 L 889.95 547.44 L 894.99 541.88 L 900.03 536.32 L 886.11 536.32 L 872.19 536.32 L 867.15 541.88 L 862.11 547.44 Z M 128.69 527.98 L 142.61 527.98 L 137.57 522.42 L 132.53 516.86 L 118.61 516.86 L 104.68 516.86 L 109.73 522.42 L 114.77 527.98 Z M 895.52 527.98 L 909.44 527.98 L 914.48 522.42 L 919.52 516.86 L 905.60 516.86 L 891.68 516.86 L 886.64 522.42 L 881.60 527.98 Z M 118.34 508.44 L 132.00 508.35 L 136.88 504.66 L 141.75 500.96 L 141.75 499.19 L 141.75 497.41 L 128.26 497.41 L 114.77 497.41 L 109.73 502.97 L 104.68 508.53 Z M 905.60 508.53 L 919.52 508.53 L 914.48 502.97 L 909.44 497.41 L 895.52 497.41 L 881.60 497.41 L 886.64 502.97 L 891.68 508.53 Z M 153.58 486.55 L 158.46 482.65 L 158.46 480.30 L 158.46 477.95 L 146.36 477.95 L 134.26 477.95 L 129.37 483.34 L 124.49 488.72 L 136.60 489.59 L 148.71 490.46 Z M 886.64 489.51 L 899.50 488.48 L 894.73 483.22 L 889.95 477.95 L 877.85 477.95 L 865.75 477.95 L 865.75 479.82 L 865.75 481.68 L 869.76 486.11 L 873.77 490.53 Z M 156.72 472.39 L 168.91 472.39 L 172.17 468.47 L 175.43 464.55 L 173.21 463.19 L 170.99 461.83 L 162.29 460.92 L 153.58 460.02 L 149.06 463.77 L 144.53 467.52 L 144.53 469.96 L 144.53 472.39 Z M 864.01 472.35 L 872.72 472.31 L 876.33 470.02 L 879.94 467.73 L 875.28 463.88 L 870.63 460.02 L 861.92 460.92 L 853.22 461.83 L 851.00 463.19 L 848.78 464.55 L 852.04 468.47 L 855.30 472.39 L 864.01 472.35 Z M 187.25 453.06 L 192.38 448.84 L 182.19 446.72 L 172.00 444.61 L 166.32 447.64 L 160.64 450.67 L 163.03 452.98 L 165.42 455.29 L 173.77 456.29 L 182.13 457.28 Z M 848.42 456.48 L 856.01 455.27 L 859.98 454.00 L 863.96 452.73 L 859.59 448.37 L 855.22 444.01 L 843.60 445.97 L 831.97 447.93 L 836.40 452.82 L 840.83 457.70 Z M 196.31 444.31 L 196.58 444.60 L 201.44 439.24 L 206.30 433.88 L 195.74 430.97 L 185.19 428.07 L 180.00 432.75 L 174.81 437.44 L 185.43 440.73 L 196.05 444.02 L 196.31 444.31 Z M 836.59 440.95 L 849.06 438.10 L 844.81 433.41 L 840.56 428.73 L 828.09 431.57 L 815.62 434.42 L 819.87 439.11 L 824.12 443.80 Z M 824.15 426.92 L 835.19 423.98 L 830.15 418.95 L 825.12 413.92 L 816.20 417.03 L 807.28 420.13 L 807.28 422.08 L 807.28 424.03 L 810.20 426.95 L 813.11 429.86 Z M 205.79 427.69 L 212.76 427.84 L 216.85 425.25 L 220.95 422.67 L 219.64 421.54 L 218.33 420.41 L 208.82 417.20 L 199.31 414.00 L 194.01 418.78 L 188.72 423.56 L 193.78 425.54 L 198.83 427.53 L 205.79 427.69 Z M 222.67 416.60 L 224.22 416.81 L 229.63 412.85 L 235.03 408.88 L 228.07 406.30 L 221.11 403.71 L 216.93 402.28 L 212.76 400.86 L 207.68 405.28 L 202.61 409.70 L 211.86 413.04 L 221.11 416.38 L 222.67 416.60 Z M 800.60 416.59 L 800.88 416.81 L 809.65 413.76 L 818.41 410.70 L 818.41 408.54 L 818.41 406.37 L 814.93 403.49 L 811.45 400.60 L 802.40 404.40 L 793.35 408.20 L 793.35 410.88 L 793.35 413.56 L 796.83 414.97 L 800.31 416.37 L 800.60 416.59 Z M 797.40 401.03 L 806.57 396.66 L 805.23 391.53 L 803.89 386.41 L 793.89 390.58 L 783.89 394.75 L 782.66 395.98 L 781.42 397.22 L 784.82 401.31 L 788.22 405.39 Z M 236.78 402.70 L 238.53 402.91 L 241.72 399.07 L 244.92 395.22 L 234.47 391.06 L 224.02 386.90 L 220.68 391.43 L 217.33 395.96 L 226.18 399.23 L 235.03 402.49 L 236.78 402.70 Z M 246.53 391.67 L 249.67 391.79 L 252.69 388.15 L 255.72 384.52 L 240.44 377.04 L 225.16 369.56 L 223.83 369.56 L 222.50 369.56 L 222.50 375.05 L 222.50 380.54 L 232.95 386.05 L 243.39 391.55 L 246.53 391.67 Z M 776.76 391.79 L 778.97 391.79 L 791.73 386.33 L 804.49 380.87 L 804.49 373.85 L 804.49 366.83 L 786.50 375.69 L 768.51 384.54 L 771.53 388.17 L 774.54 391.79 Z M 264.15 379.10 L 268.20 375.17 L 262.75 371.19 L 257.31 367.21 L 238.51 357.07 L 219.72 346.93 L 219.79 354.77 L 219.85 362.61 L 239.97 372.82 L 260.10 383.04 Z M 765.62 380.68 L 768.19 380.68 L 786.34 371.74 L 804.49 362.81 L 804.49 356.46 L 804.49 350.10 L 803.35 350.10 L 802.21 350.10 L 781.77 361.58 L 761.33 373.05 L 760.35 373.90 L 759.38 374.75 L 761.22 377.71 L 763.05 380.68 Z M 278.64 363.10 L 286.55 354.84 L 286.55 352.93 L 286.55 351.03 L 270.54 340.21 L 254.53 329.38 L 240.35 318.90 L 226.17 308.41 L 224.34 308.41 L 222.50 308.41 L 222.50 315.07 L 222.50 321.74 L 250.54 340.36 L 278.57 358.99 L 277.15 360.41 L 275.72 361.84 L 251.08 346.24 L 226.43 330.65 L 224.47 330.65 L 222.50 330.65 L 222.50 336.93 L 222.50 343.20 L 246.61 357.28 L 270.73 371.36 Z M 752.88 369.56 L 756.63 369.56 L 780.56 355.50 L 804.49 341.44 L 804.49 334.66 L 804.49 327.87 L 803.26 327.87 L 802.03 327.87 L 774.72 345.09 L 747.41 362.31 L 746.43 362.97 L 745.46 363.63 L 747.29 366.59 L 749.13 369.56 Z M 742.51 361.22 L 743.97 361.22 L 771.93 342.46 L 799.88 323.70 L 802.71 321.83 L 805.53 319.95 L 802.91 314.08 L 800.29 308.22 L 787.77 317.16 L 775.25 326.09 L 756.60 339.64 L 737.95 353.19 L 739.50 357.21 L 741.04 361.22 Z M 294.43 346.56 L 298.44 343.24 L 289.47 336.25 L 280.50 329.26 L 252.22 306.33 L 223.95 283.40 L 221.83 283.40 L 219.72 283.40 L 219.72 290.38 L 219.72 297.35 L 255.07 323.62 L 290.42 349.88 Z M 732.37 350.10 L 735.11 350.10 L 751.01 338.33 L 766.90 326.56 L 785.70 311.61 L 804.49 296.67 L 804.49 289.95 L 804.49 283.23 L 774.56 306.02 L 744.62 328.81 L 735.68 337.12 L 726.74 345.43 L 728.19 347.76 L 729.64 350.10 Z M 731.70 333.13 L 741.84 324.60 L 761.33 308.99 L 780.82 293.37 L 791.50 283.35 L 802.18 273.33 L 801.25 265.86 L 800.31 258.38 L 757.69 296.12 L 715.06 333.86 L 718.31 337.77 L 721.56 341.67 Z M 301.86 338.01 L 304.65 337.14 L 305.20 333.20 L 305.74 329.26 L 265.32 294.52 L 224.89 259.77 L 222.31 258.85 L 219.72 257.92 L 219.81 265.80 L 219.91 273.67 L 259.49 306.28 L 299.08 338.89 Z M 728.99 316.17 L 744.62 301.60 L 746.01 300.14 L 747.41 298.69 L 775.95 272.67 L 804.49 246.66 L 804.49 238.39 L 804.49 230.13 L 802.11 231.05 L 799.72 231.98 L 752.91 277.00 L 706.10 322.01 L 709.73 326.38 L 713.36 330.74 Z M 306.74 322.22 L 308.83 322.31 L 308.83 317.45 L 308.82 312.58 L 265.66 271.38 L 222.50 230.18 L 222.50 238.37 L 222.50 246.56 L 258.87 280.78 L 295.24 315.00 L 299.95 318.56 L 304.65 322.13 L 306.74 322.22 Z M 749.67 272.15 L 796.85 223.64 L 788.97 222.71 L 781.08 221.78 L 758.67 244.98 L 736.27 268.19 L 719.37 286.22 L 702.48 304.24 L 700.57 307.47 L 698.66 310.69 L 700.57 315.68 L 702.49 320.66 Z M 312.64 303.12 L 315.28 297.23 L 296.04 277.07 L 276.80 256.91 L 260.45 239.43 L 244.10 221.95 L 236.78 222.80 L 229.46 223.64 L 258.94 254.22 L 288.41 284.79 L 299.21 296.90 L 310.01 309.01 Z M 698.56 302.28 L 700.55 301.46 L 712.84 287.46 L 725.13 273.45 L 739.05 257.16 L 752.98 240.87 L 755.76 237.73 L 758.55 234.59 L 763.85 228.42 L 769.15 222.25 L 760.92 222.25 L 752.70 222.25 L 730.56 247.83 L 708.42 273.40 L 700.74 283.67 L 693.06 293.93 L 694.82 298.51 L 696.58 303.09 Z M 317.04 291.74 L 319.37 291.74 L 321.13 287.17 L 322.88 282.59 L 319.07 278.13 L 315.25 273.67 L 295.33 250.41 L 275.41 227.15 L 275.41 224.70 L 275.41 222.25 L 265.31 222.25 L 255.21 222.25 L 266.01 234.14 L 276.80 246.02 L 292.12 263.72 L 307.43 281.41 L 311.07 286.58 L 314.71 291.74 Z M 689.79 288.82 L 691.71 288.68 L 713.99 260.61 L 736.27 232.54 L 740.09 227.40 L 743.91 222.25 L 735.91 222.30 L 727.91 222.34 L 712.60 243.60 L 697.28 264.85 L 690.72 273.91 L 684.16 282.98 L 686.01 285.97 L 687.87 288.96 L 689.79 288.82 Z M 325.55 277.84 L 327.21 277.84 L 330.33 274.72 L 333.45 271.61 L 314.93 246.93 L 296.41 222.25 L 290.09 222.25 L 283.76 222.25 L 283.76 223.82 L 283.76 225.39 L 303.83 251.61 L 323.89 277.84 Z M 682.11 275.87 L 684.16 273.67 L 701.16 249.25 L 718.17 224.82 L 718.17 223.54 L 718.17 222.25 L 711.44 222.25 L 704.72 222.25 L 689.28 246.43 L 673.85 270.61 L 676.96 274.34 L 680.06 278.08 Z M 336.79 266.72 L 338.34 266.72 L 341.55 263.53 L 344.75 260.33 L 331.66 241.31 L 318.57 222.28 L 311.09 222.27 L 303.60 222.25 L 319.42 244.49 L 335.24 266.72 L 336.79 266.72 Z M 670.87 264.76 L 672.81 262.55 L 685.81 242.21 L 698.81 221.87 L 691.30 222.76 L 683.79 223.64 L 673.00 241.27 L 662.22 258.90 L 665.57 262.93 L 668.92 266.96 Z M 348.17 255.48 L 349.91 255.61 L 352.99 251.90 L 356.07 248.20 L 347.82 235.23 L 339.58 222.25 L 332.65 222.25 L 325.71 222.25 L 336.07 238.80 L 346.42 255.35 L 348.17 255.48 Z M 659.02 252.83 L 661.32 252.83 L 668.83 237.54 L 676.34 222.25 L 669.83 222.25 L 663.32 222.25 L 658.37 233.22 L 653.41 244.19 L 655.07 248.51 L 656.73 252.83 Z M 363.51 241.13 L 367.60 237.05 L 364.22 229.65 L 360.84 222.25 L 354.27 222.25 L 347.70 222.25 L 353.56 233.73 L 359.43 245.20 Z M 648.66 238.93 L 650.44 238.93 L 653.67 231.85 L 656.91 224.77 L 656.91 223.51 L 656.91 222.25 L 651.43 222.25 L 645.96 222.25 L 643.21 227.39 L 640.46 232.52 L 643.67 235.72 L 646.88 238.93 Z M 375.91 229.79 L 381.23 226.47 L 381.23 224.36 L 381.23 222.25 L 374.27 222.25 L 367.30 222.25 L 367.30 223.42 L 367.30 224.58 L 368.94 228.84 L 370.58 233.11 Z M 638.49 225.76 L 641.22 224.07 L 635.84 222.12 L 630.45 220.17 L 629.14 221.36 L 627.83 222.56 L 631.79 225.00 L 635.76 227.45 Z M 623.03 216.70 L 624.02 213.73 L 620.52 209.52 L 617.02 205.31 L 614.74 208.92 L 612.46 212.53 L 617.24 216.10 L 622.03 219.67 Z M 406.26 211.95 L 411.80 210.50 L 410.19 207.91 L 408.58 205.31 L 404.65 208.56 L 400.72 211.82 L 400.72 212.61 L 400.72 213.39 Z M 607.15 211.09 L 608.92 211.14 L 610.31 205.81 L 611.71 200.49 L 608.69 197.47 L 605.67 194.46 L 603.77 194.46 L 601.86 194.46 L 600.25 200.61 L 598.64 206.77 L 602.01 208.91 L 605.39 211.05 L 607.15 211.09 Z M 419.96 208.36 L 422.67 208.36 L 424.40 205.55 L 426.14 202.75 L 424.28 196.90 L 422.42 191.06 L 418.15 195.32 L 413.88 199.59 L 415.57 203.97 L 417.25 208.36 Z M 595.13 196.94 L 598.80 188.04 L 593.28 182.53 L 587.76 177.02 L 584.75 187.82 L 581.74 198.63 L 586.60 202.24 L 591.47 205.84 Z M 435.58 202.80 L 439.38 202.80 L 440.85 200.41 L 442.33 198.02 L 440.32 186.23 L 438.30 174.44 L 433.17 180.09 L 428.04 185.75 L 429.92 194.27 L 431.79 202.80 Z M 452.66 190.18 L 456.41 185.06 L 456.37 179.34 L 456.34 173.61 L 454.63 167.25 L 452.92 160.89 L 447.67 165.63 L 442.41 170.38 L 444.21 180.33 L 446.00 190.29 L 447.46 192.80 L 448.91 195.30 L 452.66 190.18 Z M 579.86 183.25 L 582.20 171.47 L 576.78 166.06 L 571.37 160.66 L 569.49 172.37 L 567.61 184.09 L 572.57 189.56 L 577.53 195.03 Z M 468.03 174.52 L 473.42 169.15 L 471.52 156.53 L 469.62 143.91 L 464.38 149.14 L 459.14 154.37 L 460.89 167.13 L 462.65 179.90 Z M 562.68 174.38 L 564.93 170.84 L 564.97 162.23 L 565.01 153.63 L 559.75 148.88 L 554.49 144.13 L 553.22 156.09 L 551.95 168.06 L 556.19 172.99 L 560.43 177.92 L 562.68 174.38 Z M 484.64 156.60 L 489.83 151.91 L 489.63 144.70 L 489.44 137.48 L 487.44 132.44 L 485.45 127.39 L 480.85 132.46 L 476.25 137.53 L 477.85 149.41 L 479.45 161.29 Z M 545.89 159.49 L 548.31 158.00 L 548.31 147.48 L 548.31 136.96 L 543.04 132.20 L 537.78 127.45 L 536.51 139.41 L 535.24 151.38 L 539.36 156.18 L 543.48 160.98 Z M 504.10 139.95 L 509.32 135.23 L 509.32 121.77 L 509.32 108.30 L 507.45 108.30 L 505.58 108.30 L 500.49 112.90 L 495.40 117.50 L 495.40 126.57 L 495.40 135.64 L 497.13 140.16 L 498.87 144.67 Z M 528.29 131.80 L 529.15 118.52 L 523.41 112.79 L 517.67 107.07 L 517.67 120.67 L 517.67 134.27 L 522.55 139.67 L 527.42 145.07 Z" fill="#ff0000" fill-rule="nonzero" group-id="2" id="path2388" node-id="24" stroke="none" target-height="888" target-width="888" target-x="68" target-y="68"></path></g></svg>